<svg xmlns="http://www.w3.org/2000/svg" viewBox="0 0 869.91 122.1"><defs><style>.cls-1{fill:#fff;}</style></defs><g id="Layer_2" data-name="Layer 2"><g id="Layer_1-2" data-name="Layer 1"><g id="Layer_2-2" data-name="Layer 2"><g id="Layer_1-2-2" data-name="Layer 1-2"><path class="cls-1" d="M152.69,24.48h9.11a11.35,11.35,0,0,0,11.32-10.54l1-13.94h23l-1.48,24.48H224l-1.34,20.79h-16a13.22,13.22,0,0,0-13.19,12.3L191.6,84.26a22.31,22.31,0,0,0,.15,4.9A13.64,13.64,0,0,0,196.5,98a15.3,15.3,0,0,0,9.93,3.1,23.89,23.89,0,0,0,13.64-4.16l8,17.37q-12.54,7.57-25.47,7.58-13.4,0-22.54-7.67a32.41,32.41,0,0,1-11.21-20.33,45.84,45.84,0,0,1-.41-10L171,45.27H151.54Z"/><path class="cls-1" d="M264.36,24.48h0l-1,15.06q6.69-16.26,25-16.26A58.31,58.31,0,0,1,302,25.41l-3.37,21.34a40.13,40.13,0,0,0-12.44-2q-10.44,0-16.86,6.79T262,70.22L259.59,103a19.21,19.21,0,0,1-19.16,17.81h-5.25l4.93-73.6A24.31,24.31,0,0,1,264.36,24.48Z"/><path class="cls-1" d="M308.6,100.71a58.57,58.57,0,0,1-7.78-21.16,58.28,58.28,0,0,1,1.89-27.63,44.07,44.07,0,0,1,14.72-21.43q10.76-8.31,26.83-8.32,11.92,0,20.71,4.9a30.48,30.48,0,0,1,13,13.67l1.33-16.26h22.55L397.4,88.23a21.91,21.91,0,0,0,.21,4.72q1.32,8.13,9.82,8.13h.05a10.86,10.86,0,0,1,10.32,6.77l3.57,9.12A30.45,30.45,0,0,1,404,122.05a28.71,28.71,0,0,1-16.75-4.94,24.57,24.57,0,0,1-9.69-13.91q-7.69,18.66-30.51,18.67a43.88,43.88,0,0,1-38.45-21.16Zm15.6-40.47a33.17,33.17,0,0,0-1,15.89,31.23,31.23,0,0,0,9.12,18.06,25.26,25.26,0,0,0,18.24,7.07,23,23,0,0,0,14.87-4.9A24.63,24.63,0,0,0,373.75,84a34.65,34.65,0,0,0,.89-15.84,31.93,31.93,0,0,0-9.11-18.3q-7.3-7.11-18.29-7.11a23.08,23.08,0,0,0-14.76,4.71A24.15,24.15,0,0,0,324.2,60.24Z"/><path class="cls-1" d="M452.28,24.48h3.1L454.3,40q8.55-17.83,29.81-17.84,13.67,0,22.72,7.4t11.08,19.86a41.82,41.82,0,0,1,.43,9.42L514,120.76h-1a20.63,20.63,0,0,1-20.63-20.65c0-.45,0-.9,0-1.35L494.69,64a25.12,25.12,0,0,0-.25-6.65,17,17,0,0,0-5.71-10.72q-4.61-3.89-11.81-3.88a22.81,22.81,0,0,0-16.54,6.56q-6.74,6.55-7.46,18l-3.62,53.41h-7.86a14.25,14.25,0,0,1-14.25-14.27c0-.31,0-.63,0-.94L431.34,44A21,21,0,0,1,452.28,24.48Z"/><path class="cls-1" d="M608.11,36.77l-2,2.56c-5,6.36-13.53,9-20.24,6-.49-.22-1-.43-1.49-.63a37.15,37.15,0,0,0-13.8-2.82q-7,0-10.89,2.45a7.37,7.37,0,0,0-3.65,7c.13,2.89,1.63,5.13,4.5,6.7s7.8,3.12,14.76,4.66a125.27,125.27,0,0,1,17.74,5A29,29,0,0,1,603.67,75q5,5.27,5.37,14.6a27,27,0,0,1-10.46,23.33q-11.1,9-29.3,9A66,66,0,0,1,545,117.2a63.8,63.8,0,0,1-21.11-13.44l3.46-4.24c4.9-6,13.06-7.71,19.15-4.33A47.5,47.5,0,0,0,552.61,98,53.69,53.69,0,0,0,572,101.82q6.93,0,10.71-2.27A6.86,6.86,0,0,0,586.3,93a7.25,7.25,0,0,0-4.12-6.19q-3.93-2.22-13.55-4.44-18.09-3.69-26.45-10t-8.91-18.2q-.69-15.42,10.12-23.65t27.25-8.32A56.38,56.38,0,0,1,591.18,26,49.28,49.28,0,0,1,608.11,36.77Z"/><path class="cls-1" d="M628.42,27.44H640L638.84,44.9q10.38-19.68,34-19.68,13.77,0,22.82,7.07a29.32,29.32,0,0,1,11,19.17,40.6,40.6,0,0,1,.29,9.15l-4.19,60.15H691.25l3.91-56.18a40.45,40.45,0,0,0-.41-9.33q-1.49-9.15-7.5-14.32t-15.71-5.17a33.31,33.31,0,0,0-28.67,16.07,38.17,38.17,0,0,0-5.78,18.76l-3.58,50.17H622Z"/><path class="cls-1" d="M716,80.29a55.1,55.1,0,0,1,1.93-26.52,42.06,42.06,0,0,1,14.44-20.6q10.44-8,26.7-8,17.1,0,27.74,9.24t13.36,26a85.53,85.53,0,0,1,.64,17H727.05l.15.93q2.46,15.15,12.18,24.07A33.62,33.62,0,0,0,763,111.33q18.76,0,28.3-16.91l8.69,6.84q-7.07,10.53-15.86,15.57t-20.71,5a47.08,47.08,0,0,1-23-5.64A45.15,45.15,0,0,1,724,101.31,53.66,53.66,0,0,1,716,80.29Zm20.24-35.76q-8.76,8.59-9.69,22.82H789.2a52,52,0,0,0-.48-7.48q-1.85-11.37-9.58-17.74T759.4,35.76q-14.53,0-23.19,8.77Z"/><path class="cls-1" d="M803.48,27.44h20.61L826,1.2h11.54L835.8,27.44H866l-.49,10.63h-30.3L831.3,90.82a21.52,21.52,0,0,0,.25,6.1,16.73,16.73,0,0,0,5.52,10.35,16.47,16.47,0,0,0,11.2,3.88,24.73,24.73,0,0,0,16.23-5.92l5.41,8.87q-11,8-22.54,8-10.82,0-18.09-6.38a27.61,27.61,0,0,1-9-16.9,39.92,39.92,0,0,1-.51-8.87l3.68-51.83H802.9Z"/><path class="cls-1" d="M116.67,39.42h.2c.4.95.7,1.94,1,2.91a56.75,56.75,0,0,1,2.55,12.5v.51c.11,1.41.2,2.82.21,4.23a45,45,0,0,1-.11,5.19,26.42,26.42,0,0,1-.25,2.81c-.13,1-.2,2-.4,2.94-.12.77-.33,1.53-.45,2.31a70.07,70.07,0,0,1-2.76,9.63h-.13a7,7,0,0,1-.26,1h-.13l-.09.43a.5.5,0,0,1-.1.34h-.13v.1a4.42,4.42,0,0,1-.36,1h-.13l-.13.58h-.13v.19a.64.64,0,0,1-.1.33h-.13v.15a6.06,6.06,0,0,1-.58,1.27,2.38,2.38,0,0,0-.11.38H114v.13a2.38,2.38,0,0,1-.24.57h-.13v.14c-.08.38-.38.65-.49,1H113v.14a1.82,1.82,0,0,1-.17.44h-.13v.13a1.64,1.64,0,0,1-.22.51c-.14.23-.27.47-.4.71H112a5.27,5.27,0,0,0-.19.51h-.13v.11a2.4,2.4,0,0,1-.33.61c-.09.13-.16.24-.24.38-.38.57-.74,1.16-1.15,1.73h-.12l-.13.38h-.13v.14c-.2.45-.59.77-.83,1.2l-.08.14h-.13l-.13.32h-.13v.13a6.23,6.23,0,0,1-.78,1.07l-.08.08h-.13v.14a3,3,0,0,1-.47.7l-.12.13h-.13v.14a1.64,1.64,0,0,1-.41.5l-.11.15-.08.11h-.13v.14a1.4,1.4,0,0,1-.47.5l-.13.19h-.13l0,.11a3.28,3.28,0,0,1-.42.56c-.11.1-.11.1-.24.1v.12a1.6,1.6,0,0,1-.33.4h-.13v.11a1.6,1.6,0,0,1-.4.46l-.5.52c-.14.13-.14.13-.27.13l-.07.19h-.12l-.06.12c-.07.14-.07.14-.27.2l-.06.19c-.21.21-.46.39-.67.61s-.1.1-.23.1l-.06.19c-.22.2-.22.2-.39.2v.11a2.25,2.25,0,0,1-.63.6c-.16.12-.16.12-.29.12l-.07.19a10.53,10.53,0,0,1-1,.76,1.27,1.27,0,0,0-.35.3,6.36,6.36,0,0,1-.66.5,1.18,1.18,0,0,0-.27.23,8.07,8.07,0,0,1-1,.74c-.58.43-1.17.84-1.75,1.28-.31.25-.69.39-1,.65a.4.4,0,0,1-.33.1l-.07.2-.25.13c-.43.25-.86.5-1.27.78s-.88.49-1.3.76c-1,.6-2.09,1.14-3.16,1.67-.62.3-1.21.64-1.85.9-.44.2-.88.39-1.34.56A39.37,39.37,0,0,1,79.71,118c-1.4.47-2.22.74-3.56,1.11-.52.15-1.05.25-1.57.39A54.57,54.57,0,0,1,68,120.77c-.46.06-.93.1-1.39.14-.7.07-1.39.18-2.09.2-.51,0-1,.09-1.54.08s-1.07.09-1.61.08h-1.9c-.45,0-.45,0-.66-.15-.3-.44-.55-.91-.85-1.36-.44-.69-.84-1.4-1.26-2.1-.7-1.15-1.33-2.34-2-3.52s-1.38-2.51-2-3.8-1.42-2.82-2-4.29c-.21-.51-.43-1-.67-1.52s-.45-1-.64-1.53c-.31-.86-.69-1.7-1-2.57a36.42,36.42,0,0,1-1.22-3.51,84,84,0,0,1-2.81-10.69A98.31,98.31,0,0,1,42.92,75.7c0-.12,0-.12.14-.31a7.93,7.93,0,0,1,1.38.08q1.28.11,2.55.15H49.9a11.77,11.77,0,0,0,1.57-.05,3.11,3.11,0,0,1,.61,0,11.17,11.17,0,0,0,1.83-.1,56.89,56.89,0,0,0,5.82-.64c1-.18,2-.29,3-.52s2-.4,3-.68l1-.25c1.07-.24,2.1-.59,3.15-.89l1.39-.43c.74-.23,1.46-.53,2.2-.77.54-.17,1-.4,1.58-.58s.84-.35,1.27-.51.91-.41,1.39-.58c.31-.12.61-.25.92-.39a15.24,15.24,0,0,0,1.74-.8c.81-.36,1.6-.77,2.39-1.16s1.62-.81,2.4-1.26l.36-.2c1.25-.66,2.47-1.39,3.67-2.15.69-.42,1.39-.85,2.07-1.3a2.62,2.62,0,0,1,.48-.22V62H92c.47-.24,1.14-.85,1.48-1a4.57,4.57,0,0,0,.77-.53q.42-.33.87-.63c.82-.58,1.61-1.2,2.45-1.76l.27-.22c.46-.47,1-.78,1.53-1.23.23-.19.48-.33.69-.54a1.48,1.48,0,0,1,.31-.25,1.12,1.12,0,0,0,.36-.29,2.63,2.63,0,0,1,.49-.39,4.37,4.37,0,0,0,.44-.42c.38-.31.76-.61,1.12-.94a.29.29,0,0,1,.23-.08l.07-.2c.41-.37.88-.67,1.26-1.08.15-.14.15-.14.28-.14v-.11a2.07,2.07,0,0,1,.48-.5c.12-.09.12-.09.25-.09l.06-.2c.18-.17.4-.32.58-.51a8.27,8.27,0,0,0,.74-.71,5.64,5.64,0,0,1,.72-.66,2,2,0,0,0,.4-.43H108V49h.13V48.8a1.6,1.6,0,0,1,.26-.26h.13l.06-.19.2-.18a3.29,3.29,0,0,0,.55-.57l.08-.09h.13l.07-.19h.13l.06-.19a3.34,3.34,0,0,1,.32-.33h.13l.06-.19h.13V46.5a2.22,2.22,0,0,1,.54-.64.78.78,0,0,0,.31-.34h.13V45.4a2.85,2.85,0,0,1,.69-.78,2.38,2.38,0,0,0,.53-.61l.08-.1H113v-.1a2.21,2.21,0,0,1,.33-.47h.13l.05-.12a2.8,2.8,0,0,1,.27-.4h.13v-.11a2.51,2.51,0,0,1,.38-.48,6.15,6.15,0,0,0,.65-.8l.08-.09h.13V41.2a1.64,1.64,0,0,1,.41-.5l.1-.15.09-.11H116l.12-.32h.13l.13-.32h.13l.06-.15C116.61,39.48,116.61,39.48,116.67,39.42Z"/><path class="cls-1" d="M72.35,1.39l.7.19c.21.06.42.09.63.13.47.07.92.19,1.37.3,1.6.43,3.2.84,4.77,1.36a11.52,11.52,0,0,1,1.28.47c.22.1.45.17.68.25s.14.06.21.19l.39.08a9.34,9.34,0,0,1,1.15.43c.83.34,1.63.75,2.46,1.08.17.08.17.08.24.21h.17a1.61,1.61,0,0,1,.62.26c.78.46,1.61.84,2.42,1.25v.13h.1c.29.11.58.23.86.36v.13h.11a1.77,1.77,0,0,1,.53.27l.53.34a.71.71,0,0,0,.31.13v.13H92c.32.09.53.34.85.43v.13H93a4.47,4.47,0,0,1,.88.55c.48.33.94.66,1.44,1l.13.09v.12h.13a2.37,2.37,0,0,1,.64.4v.13h.19V12l.15.06a1.11,1.11,0,0,1,.37.2v.13H97c.16.08.31.17.47.27V13h.1a3.53,3.53,0,0,1,.6.41v.12l.15.06a1.21,1.21,0,0,1,.43.27V14l.11.06a1.62,1.62,0,0,1,.41.27v.12l.38.2v.13h.11a4.21,4.21,0,0,1,.64.47,2.58,2.58,0,0,1,.34.32v.13h.13v.13L101,16a2.21,2.21,0,0,1,.47.33v.13h.12c.14.08.14.08.2.27l.19.07v.12l.12.06a2.54,2.54,0,0,1,.85.78,5.12,5.12,0,0,0,.59.55,1.06,1.06,0,0,1,.37.54l.19.07a4,4,0,0,1,.26.32l.13.06v.13l.19.06.12.15c.17.23.37.45.57.67l.79.87c.26.29.26.29.26.43h.12c.11.12.2.25.31.39a.35.35,0,0,1,.08.26H107c.17.18.34.42.51.64.34.43.67.87,1,1.31.67.89,1.3,1.8,1.94,2.71a8.28,8.28,0,0,1,.73,1.12c.23.38.46.76.72,1.13a5.07,5.07,0,0,1,.7,1.37h.12c.31.68.73,1.29,1,2,.13.27.27.53.41.79.5.93.9,1.9,1.36,2.85a1.75,1.75,0,0,1,.14.51,4.91,4.91,0,0,1-.39.51l-.12.13H115l-.07.19h-.13v.14a1.12,1.12,0,0,1-.34.44h-.13v.14a1.43,1.43,0,0,1-.41.5h-.13l-.06.19h-.13l-.06.2h-.13l-.05.1a2.69,2.69,0,0,1-.34.47h-.13v.13h-.13l-.06.2h-.13l-.06.19h-.13l-.05.11a1.19,1.19,0,0,1-.34.4h-.12l-.07.19h-.13v.13c-.08.13-.08.13-.27.2l-.06.19h-.13l0,.11a1.64,1.64,0,0,1-.4.47l-.15.15c-.17.17-.34.31-.52.46a.66.66,0,0,0-.23.29h-.13V43h-.13v.13c-.22.2-.22.2-.38.2l-.07.19H109v.11c-.18.3-.39.35-.65.65-.14.14-.14.14-.27.14v.11a1.6,1.6,0,0,1-.47.5c-.12.09-.12.09-.25.09l-.06.2c-.26.23-.59.44-.84.7l-.13.13h-.13v.12a2,2,0,0,1-.47.48l-.39.3c-.3.27-.62.53-.94.78a1.6,1.6,0,0,0-.27.25c-.34.32-.72.59-1.07.9-.16.13-.16.13-.28.13v.13a7.06,7.06,0,0,0-.78.57c-.44.33-.87.66-1.29,1s-1.06.81-1.6,1.21a.63.63,0,0,1-.32.15v.13l-.19.06-.06.13h-.2v.13l-.19.06-.06.13c-.29.19-.29.19-.45.19v.13l-.2.07-.06.13-.32.18c-.57.34-1.08.77-1.64,1.13-1.07.72-2.13,1.45-3.24,2.09l-.39.26c-.28.18-.56.34-.84.5l-.55.37a3.45,3.45,0,0,1-.54.28c-1.25.73-2.52,1.42-3.8,2.11-.85.47-1.75.86-2.62,1.3-1.14.56-2.31,1.05-3.47,1.56a65.64,65.64,0,0,1-6.36,2.37,66.91,66.91,0,0,1-14.68,3.06c-1.1.12-2.21.15-3.32.22s-2,0-3,.06-1.79-.06-2.68-.08-1.47-.12-2.2-.15-1.66-.18-2.49-.27c-.67-.07-1.34-.21-2-.26-.12,0-.12,0-.25-.15s0-.16,0-.35c0-.64,0-1.29.06-1.93a25.19,25.19,0,0,1,.2-3c0-.38.08-.76.1-1.15a13.64,13.64,0,0,1,.23-1.91c.34-3,.93-5.94,1.51-8.89l.12-.4c.19-.54.29-1.1.43-1.65q.12-.54.27-1.08c.14-.52.26-1,.43-1.54.06-.2.1-.39.15-.58.19-.75.45-1.47.69-2.2.06-.2.09-.4.13-.6.3-1,.72-1.86,1-2.82.22-.74.56-1.45.8-2.19.06-.13.06-.13.19-.19a1.31,1.31,0,0,0,.06-.27c0-.26.12-.51.19-.76h.13a5.89,5.89,0,0,1,.4-1.16,2.4,2.4,0,0,0,.12-.38h.13a5.8,5.8,0,0,1,.45-1.29c.11-.27.21-.55.32-.83H51V32.6a6.29,6.29,0,0,1,.64-1.51c.33-.67.63-1.35,1-2a3.43,3.43,0,0,0,.23-.52H53V28.4a4.67,4.67,0,0,1,.5-1.06c.29-.55.55-1.11.84-1.67h.12v-.11a3,3,0,0,1,.41-.85A5.05,5.05,0,0,0,55.2,24h.13v-.11a3.13,3.13,0,0,1,.35-.71c.19-.35.39-.7.59-1h.12v-.11a2.64,2.64,0,0,1,.17-.47h.13v-.17a3.24,3.24,0,0,1,.27-.6h.13v-.1a2.69,2.69,0,0,1,.31-.61h.13V20a1.72,1.72,0,0,1,.21-.43c.2-.32.38-.65.57-1l.09-.15h.13v-.1a3.23,3.23,0,0,1,.42-.72l.56-.82c.11-.14.11-.14.1-.28H60v-.14a5.84,5.84,0,0,1,.48-.8l.12-.16h.12v-.12a2,2,0,0,1,.1-.26H61l.13-.39h.13l.13-.38h.13v-.14a2.53,2.53,0,0,1,.34-.57H62l.13-.38h.13l.12-.33h.13v-.13a5.09,5.09,0,0,1,.66-1h.13v-.17a1.43,1.43,0,0,1,.33-.54h.13l.05-.14a9.6,9.6,0,0,1,.66-1h.13l.05-.11A5.07,5.07,0,0,1,65,9.29h.13V9.15a2,2,0,0,1,.4-.59,8.33,8.33,0,0,0,.7-.87h.13V7.55a3,3,0,0,1,.47-.7L67,6.72h.13l0-.14a1.76,1.76,0,0,1,.4-.5L68,5.62l.1-.12h.13l0-.16.08-.16.19-.06.07-.2h.12l.13-.32H69l.19-.38h.13L69.4,4h.12l.06-.11A9.28,9.28,0,0,1,70.25,3l.11-.13h.13l.05-.12c.08-.14.08-.14.27-.2,0-.08.09-.17.13-.26l.34-.41c.11-.1.11-.1.24-.1V1.7A.74.74,0,0,1,72.35,1.39Z"/><path class="cls-1" d="M60.08.17c1.81,0,3.63.07,5.44.24a11.31,11.31,0,0,1,2,.27,1.39,1.39,0,0,1-.57.58c-.07.07-.13.15-.19.22a2.53,2.53,0,0,1-.59.49,5.23,5.23,0,0,0-.45.49,1.54,1.54,0,0,1-.38.34h-.13l-.06.2a5.18,5.18,0,0,0-.89.86,3.06,3.06,0,0,1-.36.36c-.63.56-1.2,1.18-1.81,1.78a2,2,0,0,0-.27.31c-.14.18-.3.33-.45.49a4.44,4.44,0,0,1-.75.75.32.32,0,0,0-.15.21h-.13l-.05.11a2.25,2.25,0,0,1-.34.47h-.12v.13H59.7l-.07.19H59.5v.11a1.76,1.76,0,0,1-.27.4H59.1v.11a2.69,2.69,0,0,1-.34.47h-.13l-.06.19h-.13l0,.15a1.1,1.1,0,0,1-.34.43l-.13.18-.12.14h-.13V11a1.61,1.61,0,0,1-.4.5l-.11.15-.09.11H57l-.05.14a1.61,1.61,0,0,1-.4.5l-.11.15-.09.11H56l-.06.16-.07.16-.2.07-.12.32a1,1,0,0,1-.2.25h-.13l-.12.33H55V14c-.17.32-.42.53-.59.85h-.13l-.13.32H54v.15a1.1,1.1,0,0,1-.34.43l-.06.13h-.2V16c-.13.25-.27.48-.42.72l-.11.14H52.7l-.13.32h-.13l-.19.39h-.13v.1a2.88,2.88,0,0,1-.47.72c-.18.23-.35.49-.51.73l-.1.12H50.9v.13a7.63,7.63,0,0,1-.72,1.15H50v.12a1.65,1.65,0,0,1-.28.5l-.08.09h-.13l-.13.38h-.12L49.1,22H49l-.13.38h-.13l-.13.39h-.12l-.13.39H48.2l-.05.13c-.18.44-.5.71-.66,1.15h-.13l-.12.39h-.13V25a7.16,7.16,0,0,1-.4.78h-.13v.11a2.43,2.43,0,0,1-.32.62c-.15.24-.29.48-.42.74h-.13v.11a1.63,1.63,0,0,1-.25.47c-.2.31-.37.62-.54.94a1.87,1.87,0,0,1-.2.29c-.1.12-.1.12-.08.31h-.13v.14c-.16.4-.45.73-.59,1.15h-.13v.14a1.46,1.46,0,0,1-.16.44H43.5v.11a10.81,10.81,0,0,1-.71,1.45c-.26.48-.5,1-.74,1.45h-.13v.14a2.41,2.41,0,0,1-.24.63h-.12v.14a10,10,0,0,1-.42,1H41v.17a1.38,1.38,0,0,1-.24.54c-.25.6-.56,1.18-.77,1.8h-.13l-.07.22c-.16.49-.37,1-.57,1.45H39.1l-.13.64h-.13a5,5,0,0,1-.42,1.2,12.57,12.57,0,0,0-.6,1.69h-.13V44a5.14,5.14,0,0,1-.3.94L37,45l-.09.38a12,12,0,0,1-.36,1.16h-.13a13.88,13.88,0,0,1-.51,1.78c-.22.64-.43,1.29-.65,1.93a15.3,15.3,0,0,0-.59,2c-.11.47-.32.91-.4,1.38-.19.76-.42,1.5-.62,2.26-.28,1-.46,1.94-.67,2.92-.06.28-.12.57-.19.85-.18.77-.29,1.56-.45,2.34-.17.94-.36,1.89-.46,2.85a.54.54,0,0,1-.09.25L31.28,65v-.13l-.19.06a1.19,1.19,0,0,1-.26-.11c-.67-.31-1.36-.55-2-.79V64h-.24a6.2,6.2,0,0,1-1.24-.47l-.48-.2c-.1-.06-.1-.06-.16-.18a1.11,1.11,0,0,0-.3-.08h-.28V62.8h-.17a1.91,1.91,0,0,1-.6-.23,3.51,3.51,0,0,0-.77-.33v-.13h-.18A1.38,1.38,0,0,1,24,62v-.12l-.39-.07v-.13l-.38-.06V61.5c-.24-.08-.48-.16-.71-.26v-.13h-.13a4.07,4.07,0,0,1-.87-.41l-.94-.5a3.53,3.53,0,0,0-.76-.36v-.13h-.1c-.45-.15-.73-.46-1.18-.62V59h-.11a3.93,3.93,0,0,1-.66-.3v-.13h-.12a8.52,8.52,0,0,1-2-1.17,2.85,2.85,0,0,0-.72-.41V56.7h-.11c-.31-.08-.48-.34-.79-.42v-.13h-.13a8.75,8.75,0,0,1-1.08-.71c-.18-.12-.37-.23-.56-.34L12.1,55v-.13h-.19V54.7h-.14a2.76,2.76,0,0,1-.58-.38,10,10,0,0,0-1-.71L10,53.48v-.12H9.85v-.13l-.32-.13V53H9.42c-.24-.13-.47-.28-.71-.42l-.14-.11v-.13l-.33-.12V52h-.1a3.1,3.1,0,0,1-.47-.26v-.13l-.11,0c-.23-.12-.44-.28-.66-.42L6.77,51v-.13l-.39-.19v-.13H6.19l-.32-.32L5.48,50v-.13l-.38-.19V49.5H5a2.8,2.8,0,0,1-.4-.27V49.1H4.47A5.45,5.45,0,0,1,4,48.73V48.6H3.88v-.13H3.77a2.69,2.69,0,0,1-.47-.34V48l-.39-.19v-.13H2.8a2.16,2.16,0,0,1-.4-.27v-.13H2.29a3.82,3.82,0,0,1-.6-.46c.2-.91.42-1.81.68-2.7a.57.57,0,0,0,0-.26H2.5V43.7A2.29,2.29,0,0,1,2.67,43c.1-.31.2-.61.31-.92.29-.81.51-1.65.86-2.44.1-.23.19-.47.27-.71.24-.69.56-1.35.83-2s.61-1.22.84-1.86h.13V34.7a2.61,2.61,0,0,1,.32-.7c.15-.29.28-.59.41-.89h.13V33a2.69,2.69,0,0,1,.3-.67c.16-.28.32-.57.46-.87h.13v-.1a6.52,6.52,0,0,1,.43-.93h.12V30.3a1.59,1.59,0,0,1,.31-.57l.19-.39h.13v-.1a2.85,2.85,0,0,1,.31-.6h.13v-.11a1.83,1.83,0,0,1,.26-.5,5.41,5.41,0,0,0,.42-.74h.13l.13-.39h.13l.05-.14a2.29,2.29,0,0,1,.32-.51,10.61,10.61,0,0,0,.58-.9l.08-.12h.12l.06-.11a4.39,4.39,0,0,1,.27-.47H12l.13-.32h.13l.05-.13a2.37,2.37,0,0,1,.4-.64h.13l.13-.32h.13V23.1a1.53,1.53,0,0,1,.27-.44h.13v-.13h.12l.07-.25h.13L14,22h.12v-.11a2.24,2.24,0,0,1,.41-.51,2,2,0,0,0,.38-.48H15v-.14a1.64,1.64,0,0,1,.41-.5l.35-.41.1-.1H16l.12-.26h.13l0-.11a2,2,0,0,1,.54-.64.78.78,0,0,0,.31-.34h.13l.06-.19h.13V18.1a1.29,1.29,0,0,1,.38-.39,3.71,3.71,0,0,0,.55-.57,1.27,1.27,0,0,1,.38-.35h.13L19,16.6h.13v-.13h.13v-.13c.12-.12.25-.22.39-.35s.13-.1.25-.1l.05-.11a1.27,1.27,0,0,1,.4-.4,5.71,5.71,0,0,0,.58-.51c.35-.33.35-.33.52-.33v-.12l.38-.26L21.9,14h.19l.06-.19a2.18,2.18,0,0,1,.34-.26.35.35,0,0,1,.24-.06V13.4a1.37,1.37,0,0,1,.43-.4,4.31,4.31,0,0,0,.62-.51,4.18,4.18,0,0,0,.63-.4c.14-.12.14-.12.27-.12V11.8l.26-.07V11.6l.19-.08c.2-.09.2-.09.26-.24l.19-.06.06-.13.25-.14c.46-.23.84-.59,1.29-.84a1,1,0,0,0,.35-.24,5.73,5.73,0,0,1,.75-.45L29,9.08a5.66,5.66,0,0,1,.75-.44c.75-.44,1.49-.89,2.27-1.28l1.47-.77c1-.51,2-.92,3-1.41l.32-.13c.65-.3,1.31-.55,2-.79a54.49,54.49,0,0,1,5.41-1.81c.61-.18,1.23-.35,1.86-.49,1.24-.31,2.48-.6,3.74-.8L51.3.91c.55-.1,1.1-.14,1.7-.23C54.34.5,55.72.39,57.12.31a1.21,1.21,0,0,0,.38,0,9.69,9.69,0,0,1,1.32,0H59A8,8,0,0,1,60.08.17Z"/><path class="cls-1" d="M.09,58.17c.36.24.74.46,1.09.71V59h.19v.13H1.5a6.66,6.66,0,0,1,1.16.73V60h.19v.12l.13.05c.44.19.71.5,1.15.66V61h.13c.61.29,1.11.78,1.74,1v.13h.19v.13h.1a3.5,3.5,0,0,1,.61.31v.13H7a1.42,1.42,0,0,1,.47.25,8.68,8.68,0,0,0,1.16.63v.13h.19V64h.11c.36.11.62.39,1,.5v.13H10a1.33,1.33,0,0,1,.47.17v.13h.11l.47.17v.13l.39.06v.13h.1a2.6,2.6,0,0,1,.47.16v.13h.14a1.91,1.91,0,0,1,.56.26,7.13,7.13,0,0,0,1,.49v.13l.39.07v.13h.13a2.73,2.73,0,0,1,.68.29,12.8,12.8,0,0,0,1.31.59v.13h.17a8.19,8.19,0,0,1,1.18.5v.13l.58.12v.13h.15c.58.13,1,.45,1.58.62v.13l.43.1a1.33,1.33,0,0,1,.34.1v.12l.19-.06v.13a7,7,0,0,1,1,.26v.12h.25a3.45,3.45,0,0,1,.62.2c.54.22,1.09.39,1.63.58l.46.19c.75.33,1.54.53,2.3.8.53.18,1.07.35,1.61.48s1.29.37,1.94.52c.18.07.18.07.27.18a3.91,3.91,0,0,1,0,1.08,94.1,94.1,0,0,0,1,20.12c.18,1.17.4,2.33.6,3.49.11.58.17,1.17.33,1.75.29,1.16.48,2.35.79,3.52.23,1,.48,1.92.71,2.88.16.53.34,1,.47,1.58.53,2,1.19,4,1.85,6a1.8,1.8,0,0,1,.08.39v.17l.13.06a1.06,1.06,0,0,1,.09.25,13,13,0,0,0,.49,1.36l.21.55a.69.69,0,0,1,0,.35,9.32,9.32,0,0,1-1-.38c-.55-.23-1.09-.45-1.63-.71-1.15-.52-2.28-1.08-3.4-1.67v-.13h-.1a3.2,3.2,0,0,1-.6-.26l-.84-.43V113H30a3.93,3.93,0,0,1-.66-.3v-.13h-.19v-.12h-.11a3.36,3.36,0,0,1-.6-.3V112h-.11a3.23,3.23,0,0,1-.66-.29v-.13h-.19v-.13h-.2v-.13h-.19v-.13h-.19v-.13h-.15a4.58,4.58,0,0,1-.76-.47l-1.18-.81-.1-.08v-.13h-.19v-.13l-.11,0c-.38-.2-.72-.47-1.08-.7l-.09-.08v-.13l-.39-.19v-.13l-.11,0c-.23-.12-.44-.28-.66-.42l-.13-.11v-.13l-.38-.19v-.13h-.13l-.26-.26-.41-.29-.1-.09v-.13h-.12a3.41,3.41,0,0,1-.48-.37,1.64,1.64,0,0,1-.3-.29v-.13l-.12,0a2.8,2.8,0,0,1-.4-.27v-.12L19.1,105v-.13l-.19-.06v-.13h-.13v-.13l-.19-.06v-.13h-.11a2.18,2.18,0,0,1-.66-.55,15.74,15.74,0,0,0-1.14-1.17c-.08-.09-.08-.09-.08-.22h-.13l-.26-.32q-.32-.31-.6-.66a27.22,27.22,0,0,1-2-2.34c-.11-.15-.11-.15-.11-.28h-.13C12,97,10.65,95.23,9.48,93.35c-.38-.62-.8-1.2-1.13-1.84S7.49,90.05,7.1,89.3c-.7-1.3-1.28-2.61-1.92-3.91-.28-.56-.44-1.17-.72-1.72-.33-.7-.56-1.43-.82-2.16S3.12,80,2.88,79.28c-.17-.51-.34-1-.48-1.54A10.3,10.3,0,0,1,2,76.08a4.34,4.34,0,0,0-.16-.62c-.29-1.06-.5-2.14-.7-3.22A17.51,17.51,0,0,1,.8,70.32a2.38,2.38,0,0,0-.05-.26A34.7,34.7,0,0,1,.1,63.31C0,61.87,0,60.42,0,59v-.46A.78.78,0,0,1,.09,58.17Z"/></g></g></g></g></svg>