<svg xmlns="http://www.w3.org/2000/svg" viewBox="0 0 81.07 11.46"><defs><style>.cls-1{fill:#010101;}.cls-2{fill:#02994a;}</style></defs><g id="Layer_2" data-name="Layer 2"><g id="Layer_1-2" data-name="Layer 1"><path class="cls-1" d="M14.08,2.34h.85a1.06,1.06,0,0,0,1.06-1l.09-1.3h2.15l-.14,2.28h2.65l-.12,1.94h-1.5a1.23,1.23,0,0,0-1.23,1.15l-.18,2.5a2.09,2.09,0,0,0,0,.45,1.3,1.3,0,0,0,.44.83,1.46,1.46,0,0,0,.93.29,2.21,2.21,0,0,0,1.27-.39l.75,1.62a4.56,4.56,0,0,1-2.38.71,3.15,3.15,0,0,1-2.1-.72,3,3,0,0,1-1.05-1.9,3.94,3.94,0,0,1,0-.93l.24-3.61H14Z"/><path class="cls-1" d="M24.51,2.34h0l-.09,1.41a2.31,2.31,0,0,1,2.33-1.52,5.58,5.58,0,0,1,1.28.2l-.32,2a3.91,3.91,0,0,0-1.16-.19A2,2,0,0,0,25,4.87a2.76,2.76,0,0,0-.69,1.74l-.23,3.06a1.78,1.78,0,0,1-1.79,1.66h-.49l.47-6.87A2.27,2.27,0,0,1,24.51,2.34Z"/><path class="cls-1" d="M28.64,9.46a5.38,5.38,0,0,1-.72-2,5.44,5.44,0,0,1,.17-2.58,4.12,4.12,0,0,1,1.38-2,4.43,4.43,0,0,1,4.44-.32,2.88,2.88,0,0,1,1.21,1.28l.12-1.52h2.11l-.41,6a1.61,1.61,0,0,0,0,.44.82.82,0,0,0,.91.76h0a1,1,0,0,1,1,.63l.34.85a2.86,2.86,0,0,1-1.63.48A2.64,2.64,0,0,1,36,11a2.24,2.24,0,0,1-.91-1.3,2.78,2.78,0,0,1-2.85,1.75,4.14,4.14,0,0,1-2.09-.53A4.09,4.09,0,0,1,28.64,9.46ZM30.1,5.68A3.21,3.21,0,0,0,30,7.17a2.9,2.9,0,0,0,.86,1.68,2.34,2.34,0,0,0,1.7.66A2.17,2.17,0,0,0,34,9.06a2.31,2.31,0,0,0,.78-1.16,3.18,3.18,0,0,0,.08-1.48A3,3,0,0,0,34,4.72a2.33,2.33,0,0,0-1.71-.67,2.17,2.17,0,0,0-1.38.44A2.24,2.24,0,0,0,30.1,5.68Z"/><path class="cls-1" d="M42.06,2.34h.29l-.1,1.45A2.83,2.83,0,0,1,45,2.13a3.26,3.26,0,0,1,2.13.69,2.89,2.89,0,0,1,1,1.85,3.69,3.69,0,0,1,0,.88l-.41,5.78h-.09a1.92,1.92,0,0,1-1.92-2.05L46,6a2.24,2.24,0,0,0,0-.63,1.66,1.66,0,0,0-.53-1,1.68,1.68,0,0,0-1.11-.36,2.15,2.15,0,0,0-1.54.61,2.5,2.5,0,0,0-.7,1.69l-.34,5h-.73a1.33,1.33,0,0,1-1.33-1.42l.39-5.74A2,2,0,0,1,42.06,2.34Z"/><path class="cls-1" d="M56.62,3.49l-.19.24a1.65,1.65,0,0,1-1.89.56l-.14-.06A3.39,3.39,0,0,0,53.11,4a1.93,1.93,0,0,0-1,.23.7.7,0,0,0-.34.65.72.72,0,0,0,.42.63,5.87,5.87,0,0,0,1.38.44,11.56,11.56,0,0,1,1.66.46,2.88,2.88,0,0,1,1,.68,2.09,2.09,0,0,1,.5,1.37,2.5,2.5,0,0,1-1,2.18,4.2,4.2,0,0,1-2.73.84A6.23,6.23,0,0,1,50.72,11a6.06,6.06,0,0,1-2-1.25l.33-.4A1.42,1.42,0,0,1,50.86,9c.18.09.37.18.57.26a4.94,4.94,0,0,0,1.81.36,1.88,1.88,0,0,0,1-.22.61.61,0,0,0,.33-.61.66.66,0,0,0-.38-.58,5.11,5.11,0,0,0-1.27-.42,6.37,6.37,0,0,1-2.47-.93,2.15,2.15,0,0,1-.83-1.7,2.46,2.46,0,0,1,1-2.21,4.1,4.1,0,0,1,2.54-.77A5.5,5.5,0,0,1,55,2.48,4.7,4.7,0,0,1,56.62,3.49Z"/><path class="cls-1" d="M58.51,2.62h1.08l-.1,1.63a3.31,3.31,0,0,1,3.18-1.84,3.38,3.38,0,0,1,2.13.66,2.79,2.79,0,0,1,1,1.79,4.72,4.72,0,0,1,0,.86l-.39,5.61H64.38l.37-5.24a3.58,3.58,0,0,0,0-.87A2.16,2.16,0,0,0,64,3.88a2.19,2.19,0,0,0-1.47-.48,3.11,3.11,0,0,0-2.68,1.5,3.61,3.61,0,0,0-.54,1.75L59,11.33H57.91Z"/><path class="cls-1" d="M66.69,7.55a5.14,5.14,0,0,1,.18-2.47,4,4,0,0,1,1.35-1.93,4,4,0,0,1,2.49-.74,3.82,3.82,0,0,1,2.59.86A3.91,3.91,0,0,1,74.55,5.7a7.67,7.67,0,0,1,.06,1.59H67.73v.08a3.69,3.69,0,0,0,1.14,2.25,3.11,3.11,0,0,0,2.2.83,2.85,2.85,0,0,0,2.64-1.57l.81.63A4.56,4.56,0,0,1,73.05,11a3.83,3.83,0,0,1-1.93.47A4.39,4.39,0,0,1,69,10.91a4.19,4.19,0,0,1-1.53-1.39A5,5,0,0,1,66.69,7.55Zm1.89-3.33a3.12,3.12,0,0,0-.9,2.13h5.85a4,4,0,0,0,0-.7A2.59,2.59,0,0,0,72.59,4a2.79,2.79,0,0,0-1.85-.59A2.89,2.89,0,0,0,68.58,4.22Z"/><path class="cls-1" d="M74.86,2.62h1.93L77,.17h1.08l-.16,2.45h2.82l0,1H77.83l-.36,4.93a1.89,1.89,0,0,0,0,.57,1.56,1.56,0,0,0,.51,1,1.51,1.51,0,0,0,1,.37,2.32,2.32,0,0,0,1.52-.56l.5.83a3.51,3.51,0,0,1-2.1.75,2.44,2.44,0,0,1-1.69-.6,2.55,2.55,0,0,1-.84-1.58,3.4,3.4,0,0,1,0-.83l.34-4.84H74.81Z"/><path class="cls-2" d="M9.83,1.93a5.57,5.57,0,0,1,1.33,2.85A5.64,5.64,0,0,1,9.11,10,2.09,2.09,0,0,1,6.39,6.86,4.23,4.23,0,0,1,7,6.36,10.54,10.54,0,0,0,9.37,4.62,2.38,2.38,0,0,0,9.77,2C9.75,1.93,9.8,1.9,9.83,1.93Zm-8,2.17A2.09,2.09,0,0,1,4.13,5.71a3.86,3.86,0,0,1,.11.81,10.42,10.42,0,0,0,.34,2.89,2.39,2.39,0,0,0,2.09,1.67s0,.07,0,.08A5.62,5.62,0,0,1,0,6.48,2.08,2.08,0,0,1,1.78,4.1Zm.29-2.86A5.59,5.59,0,0,1,7.64.39,2.09,2.09,0,0,1,6.26,4.33,4.48,4.48,0,0,1,5.5,4,10.87,10.87,0,0,0,2.83,2.86a2.38,2.38,0,0,0-2.49,1,0,0,0,0,1-.08,0A5.6,5.6,0,0,1,2.07,1.24Z"/></g></g></svg>