<svg xmlns="http://www.w3.org/2000/svg" viewBox="0 0 1237.33 173.59"><defs><style>.cls-1{fill:#3faa55;}</style></defs><g id="Layer_2" data-name="Layer 2"><g id="Layer_1-2" data-name="Layer 1"><path d="M217.17,34.82h13a16.15,16.15,0,0,0,16.12-15L247.66,0h32.72l-2.1,34.82h40.34l-1.9,29.57h-22.8a18.8,18.8,0,0,0-18.76,17.5l-2.65,38a30.75,30.75,0,0,0,.21,7q1.32,8.15,6.77,12.55t14.11,4.4A34,34,0,0,0,313,137.85l11.37,24.7q-17.83,10.78-36.22,10.78-19.07,0-32.07-10.91t-15.93-28.91a66.36,66.36,0,0,1-.59-14.19l3.69-54.93H215.54Z"/><path d="M376,34.82h0l-1.38,21.42q9.51-23.11,35.53-23.12,7.5,0,19.42,3l-4.8,30.35a57.09,57.09,0,0,0-17.68-2.89q-14.85,0-24,9.66T372.63,99.87l-3.42,46.56A27.32,27.32,0,0,1,342,171.75H334.5l7-104.67A34.58,34.58,0,0,1,376,34.82Z"/><path d="M438.92,143.24a85.61,85.61,0,0,1-8.37-69.39,62.53,62.53,0,0,1,20.93-30.48q15.3-11.83,38.16-11.83,17,0,29.45,7A43.27,43.27,0,0,1,537.56,58l1.9-23.13h32.06l-6.3,90.68a30.6,30.6,0,0,0,.3,6.7q1.88,11.56,14,11.56h.08a15.47,15.47,0,0,1,14.68,9.63l5.07,13a43.42,43.42,0,0,1-24.71,7.22q-13.68,0-23.81-7A34.81,34.81,0,0,1,537,146.79q-10.93,26.53-43.39,26.54-17.88,0-31.92-8A63.51,63.51,0,0,1,438.92,143.24Zm22.2-57.56a47,47,0,0,0-1.46,22.6q2.54,15.64,13,25.69T498.58,144q12.48,0,21.14-7a35.07,35.07,0,0,0,11.87-17.54A49.36,49.36,0,0,0,532.86,97q-2.58-15.9-13-26t-26-10.12q-12.5,0-21,6.7A34.37,34.37,0,0,0,461.12,85.68Z"/><path d="M643.28,34.82h4.41L646.15,56.9q12.18-25.36,42.4-25.36,19.44,0,32.33,10.51T736.63,70.3a57.58,57.58,0,0,1,.6,13.41l-6.2,88h-1.45a29.35,29.35,0,0,1-29.29-31.32l3.32-49.36a36.29,36.29,0,0,0-.36-9.46q-1.57-9.73-8.12-15.25t-16.8-5.52a32.43,32.43,0,0,0-23.52,9.33q-9.59,9.33-10.62,25.63l-5.15,76H627.87a20.27,20.27,0,0,1-20.23-21.62l5.86-87.46A29.85,29.85,0,0,1,643.28,34.82Z"/><path d="M864.92,52.3,862,56c-7.16,9-19.24,12.72-28.79,8.48-.69-.31-1.39-.61-2.11-.89a52.78,52.78,0,0,0-19.63-4q-10,0-15.48,3.48a10.47,10.47,0,0,0-5.21,9.92q.29,6.18,6.41,9.53t21,6.64q16.59,3.68,25.22,7.09a41.29,41.29,0,0,1,15.12,10.38q7,7.5,7.63,20.77.93,20.37-14.86,33.18t-41.67,12.81a93.87,93.87,0,0,1-34.47-6.64,90.56,90.56,0,0,1-30-19.12l4.92-6c7-8.52,18.58-11,27.24-6.14a68,68,0,0,0,8.67,4,76.09,76.09,0,0,0,27.51,5.38q9.86,0,15.23-3.22a9.73,9.73,0,0,0,5.09-9.39q-.26-5.65-5.85-8.81t-19.27-6.3q-25.73-5.27-37.63-14.2T758.41,77q-1-21.95,14.38-33.64t38.76-11.83A80.3,80.3,0,0,1,840.84,37,70.21,70.21,0,0,1,864.92,52.3Z"/><path d="M893.82,39h16.42l-1.62,24.84q14.77-28,48.42-28,19.58,0,32.45,10.06t15.66,27.27a58.05,58.05,0,0,1,.4,13l-5.95,85.54H983.18l5.55-79.89a57.9,57.9,0,0,0-.58-13.28q-2.11-13-10.66-20.37t-22.36-7.35a47.37,47.37,0,0,0-40.77,22.86,54.17,54.17,0,0,0-8.21,26.68l-5.1,71.35H884.62Z"/><path d="M1018.33,114.2a78.45,78.45,0,0,1,2.74-37.72,60,60,0,0,1,20.54-29.3q14.85-11.31,38-11.31,24.32,0,39.46,13.15t19,36.92q1.54,9.47.91,24.18H1034.09l.22,1.32q3.5,21.56,17.32,34.23t33.53,12.68q26.67,0,40.25-24l12.35,9.73q-10,15-22.55,22.14t-29.46,7.16a67,67,0,0,1-32.77-8,63.89,63.89,0,0,1-23.29-21.22A76,76,0,0,1,1018.33,114.2Zm28.8-50.86q-12.48,12.22-13.79,32.46h89.1a75,75,0,0,0-.68-10.65q-2.62-16.16-13.62-25.23t-28.09-9.06Q1059.43,50.86,1047.13,63.34Z"/><path d="M1142.8,39h29.31l2.74-37.32h16.43L1188.8,39h43l-.7,15.11H1188l-5.56,75a29.94,29.94,0,0,0,.36,8.67,23.85,23.85,0,0,0,7.84,14.72q6.35,5.52,15.94,5.52a35.34,35.34,0,0,0,23.08-8.41l7.7,12.61q-15.64,11.31-32.07,11.3-15.37,0-25.72-9.06t-12.77-24.05a57.55,57.55,0,0,1-.74-12.62l5.25-73.72H1142Z"/><path class="cls-1" d="M166,56.06h.27c.58,1.35,1,2.76,1.48,4.15A81.16,81.16,0,0,1,171.34,78c0,.24,0,.48,0,.72.15,2,.28,4,.3,6a67.08,67.08,0,0,1-.15,7.38,36,36,0,0,1-.37,4c-.18,1.39-.27,2.79-.57,4.17-.17,1.11-.46,2.19-.63,3.29A100.66,100.66,0,0,1,166,117.28h-.19a9.53,9.53,0,0,1-.36,1.37h-.18c-.05.2-.09.41-.14.61a3.82,3.82,0,0,1-.14.48h-.18l0,.15a5.68,5.68,0,0,1-.52,1.5h-.18l-.18.82h-.19l0,.26a1.14,1.14,0,0,1-.14.47h-.18l0,.22a8.91,8.91,0,0,1-.82,1.81,2.34,2.34,0,0,0-.17.53h-.18l0,.19a3,3,0,0,1-.34.81h-.18l0,.2c-.12.55-.54.92-.7,1.45h-.18l0,.2a2,2,0,0,1-.24.62h-.18l0,.19a2.65,2.65,0,0,1-.33.73c-.2.33-.38.66-.56,1h-.19c-.09.24-.19.48-.27.73h-.18l0,.16a3.87,3.87,0,0,1-.47.87l-.34.53c-.55.82-1,1.66-1.63,2.46h-.18l-.18.55h-.19l-.06.19c-.3.64-.84,1.1-1.19,1.72l-.12.19h-.18l-.18.46h-.19l0,.18a9.1,9.1,0,0,1-1.11,1.52l-.12.12h-.18l-.07.2a4.42,4.42,0,0,1-.67,1l-.17.18h-.18l-.07.2a2.33,2.33,0,0,1-.57.72l-.16.21-.12.15h-.18l-.06.2a2,2,0,0,1-.67.72l-.18.27H149l-.07.16a4.57,4.57,0,0,1-.6.79c-.15.15-.15.15-.33.15l-.07.16a2.17,2.17,0,0,1-.48.57h-.18l-.07.15a3,3,0,0,1-.57.67l-.71.73c-.21.18-.21.18-.39.18l-.09.28h-.18l-.08.17c-.11.19-.11.19-.38.28l-.09.28c-.29.29-.66.55-.95.86-.15.14-.15.14-.33.14l-.09.28c-.32.27-.32.27-.55.27l-.06.16a3.69,3.69,0,0,1-.9.86c-.23.17-.23.17-.41.17l-.09.27a15.71,15.71,0,0,1-1.36,1.08,1.74,1.74,0,0,0-.5.42,6,6,0,0,1-.94.72,1.37,1.37,0,0,0-.38.33,13,13,0,0,1-1.39,1.05c-.83.6-1.67,1.19-2.49,1.81-.44.37-1,.56-1.43.93a.5.5,0,0,1-.46.15l-.1.27a1.91,1.91,0,0,1-.36.19c-.61.35-1.22.71-1.81,1.11s-1.24.7-1.85,1.08c-1.45.86-3,1.63-4.48,2.38-.88.42-1.73.91-2.64,1.27-.62.3-1.26.56-1.9.8a60.39,60.39,0,0,1-5.91,2.26c-2,.67-3.16,1.06-5.06,1.59-.74.21-1.49.35-2.23.56a79.14,79.14,0,0,1-9.43,1.78c-.66.09-1.32.14-2,.21-1,.09-2,.25-3,.28-.73,0-1.46.12-2.19.1s-1.52.13-2.29.12l-2.71,0c-.64,0-.64,0-.94-.22-.42-.63-.78-1.3-1.2-1.93-.63-1-1.2-2-1.8-3-1-1.65-1.89-3.34-2.84-5s-2-3.57-2.83-5.41c-1-2-2-4-2.86-6.1-.3-.72-.61-1.45-1-2.16a21.8,21.8,0,0,1-.91-2.18c-.45-1.23-1-2.42-1.38-3.66a46,46,0,0,1-1.73-5,117.05,117.05,0,0,1-4-15.19,137.5,137.5,0,0,1-2-15c0-.17,0-.17.19-.44.67,0,1.31.07,2,.11,1.21.1,2.42.18,3.62.21,1.38,0,2.76,0,4.14,0a16.72,16.72,0,0,0,2.24-.08,6.32,6.32,0,0,1,.87,0,25.18,25.18,0,0,0,2.6-.15,74.33,74.33,0,0,0,8.28-.91c1.42-.24,2.86-.41,4.27-.73s2.9-.57,4.33-1c.48-.13,1-.25,1.45-.36,1.52-.33,3-.83,4.48-1.26.66-.19,1.31-.4,2-.6,1.06-.34,2.08-.77,3.14-1.11.76-.24,1.49-.56,2.24-.82s1.2-.5,1.81-.72,1.3-.59,2-.83c.44-.17.87-.35,1.3-.55a24.37,24.37,0,0,0,2.49-1.14c1.15-.51,2.27-1.09,3.39-1.65s2.3-1.15,3.42-1.8l.51-.28c1.78-.94,3.51-2,5.21-3,1-.61,2-1.21,3-1.86a3.55,3.55,0,0,1,.69-.31v-.19l.23-.1c.67-.35,1.63-1.22,2.11-1.41A7.43,7.43,0,0,0,134,86q.6-.47,1.23-.9c1.18-.82,2.3-1.71,3.49-2.49l.38-.32c.66-.67,1.49-1.11,2.18-1.75.32-.27.68-.47,1-.77a1.83,1.83,0,0,1,.44-.35,1.74,1.74,0,0,0,.51-.41,4.25,4.25,0,0,1,.7-.57,6.87,6.87,0,0,0,.63-.58c.53-.45,1.08-.88,1.59-1.35a.36.36,0,0,1,.33-.11l.09-.28c.58-.53,1.25-1,1.8-1.53.21-.2.21-.2.39-.2l.07-.17a2.82,2.82,0,0,1,.67-.71.4.4,0,0,1,.36-.13l.09-.27c.25-.26.56-.47.82-.73a12.52,12.52,0,0,0,1.05-1,7.65,7.65,0,0,1,1-.95,2.54,2.54,0,0,0,.58-.6h.18v-.19h.18V69.4a4.17,4.17,0,0,1,.37-.36h.18l.09-.28.29-.25a4.66,4.66,0,0,0,.79-.81l.11-.13h.18l.1-.27h.18l.09-.27a3.33,3.33,0,0,1,.46-.46h.18l.09-.27h.18l.07-.16a3.06,3.06,0,0,1,.77-.91,1.1,1.1,0,0,0,.44-.49h.18l.08-.16a3.72,3.72,0,0,1,1-1.11,3.92,3.92,0,0,0,.75-.87l.11-.14h.19l.06-.16a4,4,0,0,1,.48-.66h.19l.07-.16a3.14,3.14,0,0,1,.38-.57H162l.06-.16a3.63,3.63,0,0,1,.55-.69,9.16,9.16,0,0,0,.93-1.13l.1-.13h.18l.07-.2a2.29,2.29,0,0,1,.57-.71l.16-.21.12-.15h.18l.18-.46h.19l.18-.46h.18l.09-.22C165.85,56.15,165.85,56.15,166,56.06Z"/><path class="cls-1" d="M102.91,2l1,.26a7,7,0,0,0,.91.19c.66.1,1.3.27,2,.43,2.27.62,4.55,1.19,6.78,1.93a14.55,14.55,0,0,1,1.81.67,8.87,8.87,0,0,0,1,.36c.2.09.2.09.29.27l.56.11a11.88,11.88,0,0,1,1.63.62c1.18.48,2.32,1.06,3.5,1.53.25.11.25.11.34.3l.24,0a2.61,2.61,0,0,1,.89.38c1.11.66,2.29,1.19,3.44,1.78V11l.15,0a10.9,10.9,0,0,1,1.22.52v.18l.16,0a2.6,2.6,0,0,1,.74.38l.77.5a1.35,1.35,0,0,0,.43.18V13l.16,0c.45.13.76.48,1.21.61v.18l.16,0a5.94,5.94,0,0,1,1.27.78c.67.46,1.33.93,2,1.35l.19.12v.18l.19.06a3.44,3.44,0,0,1,.91.58v.18h.27v.19l.22.08a2.25,2.25,0,0,1,.52.28v.18L138,18c.23.12.45.24.67.38v.18l.14.07a4.14,4.14,0,0,1,.86.57v.19l.21.07a2.2,2.2,0,0,1,.62.38V20l.16.07a3.14,3.14,0,0,1,.57.38v.19l.54.27v.18l.16.07a6.45,6.45,0,0,1,.91.67,3,3,0,0,1,.49.45v.18h.18v.18l.15.07a3.55,3.55,0,0,1,.67.48v.19l.18.07c.19.11.19.11.28.38l.27.09v.19l.17.07a4,4,0,0,1,1.2,1.11c.27.28.55.53.84.78a1.46,1.46,0,0,1,.53.78l.28.09.36.46.19.09v.18l.27.09a1.51,1.51,0,0,1,.16.2,10.66,10.66,0,0,0,.82,1L151,30.13c.37.42.37.42.37.63h.18a4.2,4.2,0,0,1,.43.55.44.44,0,0,1,.12.36h.18c.24.26.49.61.73.91.48.62.95,1.24,1.41,1.87,1,1.27,1.85,2.56,2.76,3.86a12.66,12.66,0,0,1,1,1.58c.33.55.66,1.09,1,1.61a7,7,0,0,1,1,2h.18c.43,1,1,1.83,1.49,2.78.18.38.38.75.58,1.12.72,1.32,1.28,2.71,1.93,4a2.1,2.1,0,0,1,.2.72,3.78,3.78,0,0,1-.55.73l-.18.19h-.18l-.09.27h-.18l-.07.21a1.59,1.59,0,0,1-.48.61h-.18l-.07.2a2,2,0,0,1-.57.72h-.19l-.09.27h-.18l-.09.28h-.18l-.07.15a3.55,3.55,0,0,1-.48.67h-.19v.18h-.18l-.09.28h-.18l-.09.27h-.19l-.06.16a2.21,2.21,0,0,1-.48.57h-.19l-.09.27h-.18l-.08.18c-.1.19-.1.19-.38.28l-.09.28h-.18l-.06.15a3.37,3.37,0,0,1-.58.67l-.22.22c-.24.23-.48.44-.74.65a1.12,1.12,0,0,0-.32.41H156v.18h-.19v.18c-.31.28-.31.28-.54.28l-.1.27H155l-.06.15c-.26.44-.56.51-.92.93-.21.2-.21.2-.39.2l-.07.16a2.7,2.7,0,0,1-.67.72.42.42,0,0,1-.36.12l-.09.28c-.36.33-.83.63-1.18,1l-.19.19h-.18l-.07.16a2.51,2.51,0,0,1-.65.69l-.56.43c-.44.38-.88.74-1.34,1.1a3.33,3.33,0,0,0-.39.35c-.48.47-1,.85-1.52,1.29-.22.18-.22.18-.4.18V70c-.37.3-.74.48-1.1.82-.63.47-1.24,1-1.84,1.45s-1.51,1.16-2.28,1.73a1.27,1.27,0,0,1-.45.2v.19l-.27.09-.09.18h-.28v.18l-.27.1-.09.18c-.41.27-.41.27-.64.27v.18l-.28.1-.09.18-.45.26c-.81.49-1.54,1.1-2.34,1.6-1.51,1-3,2.07-4.61,3l-.55.37q-.59.38-1.2.72c-.27.16-.52.34-.78.51a6.93,6.93,0,0,1-.76.41c-1.78,1-3.59,2-5.41,3-1.21.67-2.48,1.23-3.72,1.85-1.62.8-3.28,1.5-4.94,2.22a87.73,87.73,0,0,1-9,3.37,94.73,94.73,0,0,1-20.87,4.35c-1.57.18-3.15.21-4.72.32-1.42.1-2.84.08-4.27.08s-2.54-.08-3.82-.1c-1,0-2.08-.18-3.13-.22s-2.35-.25-3.53-.38c-1-.1-1.91-.31-2.88-.38-.17,0-.17,0-.35-.21a3.7,3.7,0,0,1,0-.5c0-.91,0-1.83.09-2.74.07-1.44.11-2.88.29-4.31.06-.54.11-1.09.14-1.63.06-.92.19-1.82.32-2.73.49-4.25,1.32-8.45,2.15-12.64l.16-.57a19.16,19.16,0,0,0,.61-2.34c.12-.52.25-1,.4-1.54.19-.74.36-1.47.6-2.19.09-.28.15-.55.22-.83.27-1.06.64-2.08,1-3.13a8,8,0,0,0,.18-.85c.43-1.35,1-2.64,1.42-4,.32-1.07.8-2.06,1.15-3.12.08-.19.08-.19.26-.28a1.33,1.33,0,0,0,.09-.38c.08-.36.17-.72.28-1.08h.18a8,8,0,0,1,.56-1.65,2.6,2.6,0,0,0,.17-.54h.18a9.68,9.68,0,0,1,.64-1.83c.17-.39.31-.79.46-1.19h.18l0-.19a9.26,9.26,0,0,1,.91-2.15c.46-.95.89-1.92,1.38-2.86a4.86,4.86,0,0,0,.32-.74h.19l0-.23a5.87,5.87,0,0,1,.7-1.5c.42-.79.79-1.59,1.19-2.38h.19l0-.15a4.47,4.47,0,0,1,.57-1.21,6.65,6.65,0,0,0,.48-1h.19l0-.16a4.32,4.32,0,0,1,.5-1c.27-.5.55-1,.84-1.48h.18l0-.16c.07-.23.15-.44.24-.67h.19l.07-.24a6.48,6.48,0,0,1,.38-.85h.19l0-.14a4.14,4.14,0,0,1,.43-.87h.19l0-.15a2.09,2.09,0,0,1,.3-.62c.28-.46.54-.93.81-1.39l.13-.21h.19l0-.15a4.21,4.21,0,0,1,.6-1l.8-1.17c.15-.2.15-.2.13-.4h.18l.07-.2A8,8,0,0,1,86,22.12l.18-.23h.18l0-.17a1.28,1.28,0,0,1,.14-.37h.18l.19-.55h.18l.18-.55h.19l.06-.19a4.51,4.51,0,0,1,.48-.82h.19l.18-.54h.18l.18-.46h.19l.06-.19a8.18,8.18,0,0,1,.94-1.45h.18l.07-.25a2,2,0,0,1,.48-.76h.19l.06-.2c.24-.54.66-.84.94-1.35H92l.08-.16c.12-.23.24-.45.38-.67h.18l.08-.2a2.92,2.92,0,0,1,.57-.83,13.68,13.68,0,0,0,1-1.25h.18l.07-.2a4.66,4.66,0,0,1,.67-1l.17-.18h.19l.06-.2a2.19,2.19,0,0,1,.58-.71L96.73,8l.15-.17h.18l.07-.22.11-.23.28-.09L97.61,7h.18L98,6.55h.18L98.43,6h.18l.09-.28h.19L99,5.56a13.77,13.77,0,0,1,1-1.21l.15-.18h.19l.07-.18c.11-.19.11-.19.38-.28.07-.12.13-.24.19-.36s.32-.39.48-.59.16-.14.34-.14l.07-.17C102.07,2,102.35,1.9,102.91,2Z"/><path class="cls-1" d="M85.45.24c2.58.06,5.17.1,7.73.34A14.48,14.48,0,0,1,96.05,1a2,2,0,0,1-.82.82L95,2.11a3.09,3.09,0,0,1-.83.69,6.11,6.11,0,0,0-.64.7A2.29,2.29,0,0,1,93,4h-.19l-.09.27a9.68,9.68,0,0,0-1.26,1.22,4.26,4.26,0,0,1-.52.52c-.9.79-1.71,1.68-2.57,2.52a2.43,2.43,0,0,0-.4.45,8.18,8.18,0,0,1-.64.68,6,6,0,0,1-1.06,1.07A.57.57,0,0,0,86,11h-.18l-.07.16a3.09,3.09,0,0,1-.48.66h-.18V12h-.18l-.09.27h-.19l-.07.16a3.14,3.14,0,0,1-.38.57H84l-.06.16a4,4,0,0,1-.48.66h-.19l-.09.28H83l-.07.2a1.7,1.7,0,0,1-.48.62l-.19.25-.17.21h-.19l-.06.2a2.19,2.19,0,0,1-.58.71l-.15.21-.12.16H80.8l-.07.2a2.29,2.29,0,0,1-.57.71l-.16.21-.12.16H79.7l-.07.22-.11.23-.28.09-.18.46a3.25,3.25,0,0,1-.27.37H78.6l-.18.45h-.18l-.07.16c-.25.46-.6.75-.85,1.21h-.18l-.18.46h-.18l-.07.21a1.91,1.91,0,0,1-.48.61l-.09.18H76l-.07.15c-.18.36-.39.68-.6,1l-.15.21H75l-.18.45h-.19l-.27.55h-.18l0,.15a3.75,3.75,0,0,1-.67,1c-.26.33-.49.69-.73,1l-.13.17h-.18l-.06.18a10.33,10.33,0,0,1-1,1.64h-.18l0,.16a2.3,2.3,0,0,1-.4.72l-.12.13h-.18l-.18.55H70l-.19.54h-.18l-.18.55h-.19l-.18.55h-.18l-.18.55h-.19l-.06.19c-.27.62-.71,1-.94,1.64h-.18l-.19.54H67l-.06.18a11.54,11.54,0,0,1-.58,1.1h-.18l0,.17a3.36,3.36,0,0,1-.46.88c-.32.52-.32.52-.6,1.05H64.9l0,.16a2.38,2.38,0,0,1-.35.67,13.6,13.6,0,0,0-.78,1.33,1.94,1.94,0,0,1-.27.41c-.15.18-.15.18-.12.45h-.19l-.07.19c-.23.58-.64,1.05-.84,1.64h-.18l0,.2a2,2,0,0,1-.24.62h-.18l0,.16a16.43,16.43,0,0,1-1,2.06c-.36.68-.71,1.38-1.05,2.07h-.18l0,.19a5,5,0,0,1-.34.91h-.18l0,.2c-.12.52-.45.94-.61,1.44H58l0,.25a2.17,2.17,0,0,1-.34.76c-.35.86-.79,1.68-1.1,2.56h-.18l-.1.31c-.23.7-.53,1.38-.81,2.06h-.19l-.18.92h-.18a7.81,7.81,0,0,1-.6,1.7,18.67,18.67,0,0,0-.86,2.41H53.2l0,.21a6.34,6.34,0,0,1-.43,1.34l-.18.09c0,.19-.09.37-.12.55-.14.56-.34,1.1-.52,1.64h-.19A18.31,18.31,0,0,1,51,68.73c-.3.92-.6,1.84-.91,2.76a23.34,23.34,0,0,0-.85,2.85c-.16.66-.45,1.28-.56,2-.27,1.08-.6,2.14-.89,3.22-.39,1.36-.65,2.76-.95,4.15-.08.4-.17.81-.27,1.21-.26,1.1-.41,2.22-.64,3.32-.24,1.35-.52,2.7-.66,4.06a.65.65,0,0,1-.12.36l-.73-.09v-.19l-.27.1a2.17,2.17,0,0,1-.37-.16,30.29,30.29,0,0,0-2.92-1.12V91l-.33,0a9.51,9.51,0,0,1-1.77-.68L38.09,90c-.14-.08-.14-.08-.23-.27a2.58,2.58,0,0,0-.42-.1L37,89.5v-.18l-.24,0a2.94,2.94,0,0,1-.85-.33,6.24,6.24,0,0,0-1.1-.46v-.19l-.26,0a2.55,2.55,0,0,1-.56-.14V88l-.55-.09v-.19l-.55-.09V87.4c-.34-.11-.67-.23-1-.36v-.19l-.19,0a5.83,5.83,0,0,1-1.24-.58l-1.34-.72a5.51,5.51,0,0,0-1.07-.5v-.19l-.15,0c-.64-.22-1-.67-1.68-.89v-.18l-.16,0a4.83,4.83,0,0,1-.93-.42v-.18l-.17,0a12.11,12.11,0,0,1-2.83-1.67,4.48,4.48,0,0,0-1-.58v-.18l-.17,0c-.43-.12-.67-.49-1.11-.61v-.18l-.19-.06a11.93,11.93,0,0,1-1.54-1l-.79-.49-.13-.1V78h-.28v-.18l-.19-.07a3.75,3.75,0,0,1-.82-.54,13,13,0,0,0-1.46-1l-.18-.13v-.18H14v-.18l-.46-.19v-.18l-.15-.07c-.35-.18-.67-.39-1-.6l-.21-.15v-.18l-.45-.19V74l-.16-.07a6.48,6.48,0,0,1-.67-.39v-.18l-.15-.07a9.33,9.33,0,0,1-.94-.6l-.18-.15v-.18l-.55-.28v-.18H8.8l-.45-.46-.55-.36v-.19l-.55-.27v-.18l-.16-.08A2.7,2.7,0,0,1,6.52,70v-.18l-.16-.08a7.08,7.08,0,0,1-.66-.38v-.18H5.51V69l-.15-.07a3.55,3.55,0,0,1-.67-.48v-.19l-.55-.27v-.18L4,67.68a2.7,2.7,0,0,1-.57-.38v-.18L3.25,67a4.39,4.39,0,0,1-.84-.65c.27-1.29.59-2.56,1-3.83a.83.83,0,0,0,0-.38H3.6l0-.22a3.73,3.73,0,0,1,.24-1.05c.14-.43.3-.87.44-1.3.42-1.16.74-2.35,1.24-3.47.14-.33.26-.67.38-1,.33-1,.79-1.94,1.18-2.91s.86-1.74,1.19-2.65h.19v-.22a3.91,3.91,0,0,1,.41-1c.21-.42.39-.84.58-1.26h.19l0-.19a4.23,4.23,0,0,1,.42-1c.23-.41.45-.81.65-1.24h.18l0-.14a9.27,9.27,0,0,1,.61-1.32h.19l0-.19a2.26,2.26,0,0,1,.43-.81c.1-.18.19-.37.28-.55h.18l0-.14a4.18,4.18,0,0,1,.44-.87h.18l0-.15a2.35,2.35,0,0,1,.37-.7,8,8,0,0,0,.6-1.06h.19l.18-.55h.18l.07-.2a3.1,3.1,0,0,1,.46-.73A10.7,10.7,0,0,0,16.18,36l.11-.17h.19l.07-.15c.12-.23.24-.45.38-.67h.19l.18-.46h.18l.07-.19a3.27,3.27,0,0,1,.57-.9h.18l.19-.46h.18l.07-.21a2,2,0,0,1,.39-.61h.18V32h.18l.09-.37h.19l.18-.46h.18l.06-.15a4.1,4.1,0,0,1,.59-.73,3.18,3.18,0,0,0,.54-.67h.18l.06-.2a2.21,2.21,0,0,1,.58-.71c.17-.2.34-.39.5-.59l.14-.14H23l.19-.37h.18l.07-.15a2.91,2.91,0,0,1,.76-.91,1.17,1.17,0,0,0,.45-.49h.18l.09-.28h.19l.05-.15a2,2,0,0,1,.53-.55,4.73,4.73,0,0,0,.79-.82,2.29,2.29,0,0,1,.54-.49h.19l.09-.27h.18v-.18h.18v-.19c.17-.17.35-.32.56-.5s.17-.14.36-.14l.06-.16a1.94,1.94,0,0,1,.57-.57,8.18,8.18,0,0,0,.83-.73c.5-.45.5-.45.73-.45v-.19l.55-.36.09-.19h.27l.09-.27a4.83,4.83,0,0,1,.49-.37.44.44,0,0,1,.34-.09l.06-.16a1.76,1.76,0,0,1,.61-.57,5.59,5.59,0,0,0,.88-.73,5,5,0,0,0,.9-.57c.2-.16.2-.16.38-.16v-.18l.36-.09V16.5l.27-.12c.29-.12.29-.12.37-.33l.28-.09.09-.19a3.9,3.9,0,0,1,.35-.19c.66-.34,1.19-.85,1.83-1.2a1.83,1.83,0,0,0,.5-.34,7.21,7.21,0,0,1,1.07-.64,8.6,8.6,0,0,0,.74-.49,9.25,9.25,0,0,1,1.06-.63c1.07-.61,2.13-1.25,3.23-1.81.69-.37,1.38-.75,2.09-1.09,1.41-.73,2.88-1.32,4.3-2l.45-.19c.92-.42,1.87-.78,2.82-1.12a74.57,74.57,0,0,1,7.69-2.57c.88-.26,1.76-.5,2.65-.7,1.76-.44,3.53-.86,5.33-1.14.74-.11,1.35-.25,2.09-.36s1.57-.2,2.35-.32c2-.26,4-.42,5.93-.52a3.06,3.06,0,0,0,.54-.07,13.12,13.12,0,0,1,1.88,0H84A10.79,10.79,0,0,1,85.45.24Z"/><path class="cls-1" d="M.12,82.74c.52.34,1,.65,1.56,1v.18H2v.18l.18.06a10.9,10.9,0,0,1,1.65,1v.18h.27v.18l.2.07c.61.26,1,.71,1.63.94v.18l.18.06c.87.41,1.58,1.1,2.47,1.49v.19H8.8v.18l.15,0a4.37,4.37,0,0,1,.86.44v.18l.15,0a2.15,2.15,0,0,1,.67.35,13.81,13.81,0,0,0,1.64.9v.18h.28V91l.15,0c.51.16.89.55,1.4.7v.19l.16,0a5.21,5.21,0,0,1,.66.24v.18l.16,0a5.35,5.35,0,0,1,.67.24v.18l.54.09v.18l.16,0a5.35,5.35,0,0,1,.67.24v.18l.19,0a2.38,2.38,0,0,1,.79.37,10,10,0,0,0,1.39.7v.18l.55.09v.18l.19,0a4.48,4.48,0,0,1,1,.41c.61.31,1.23.59,1.87.84v.19l.23,0a12.39,12.39,0,0,1,1.68.7v.18l.83.18v.19l.22,0c.82.18,1.44.64,2.24.89v.18l.62.14a2,2,0,0,1,.48.14v.18l.27-.09v.18a9.24,9.24,0,0,1,1.37.37V100l.36.07a4.83,4.83,0,0,1,.89.28c.76.31,1.54.56,2.32.82l.65.28c1.06.46,2.18.75,3.27,1.13.75.26,1.51.5,2.29.69s1.83.52,2.76.74c.25.1.25.1.38.25a5.6,5.6,0,0,1,0,1.53,135,135,0,0,0,1.47,28.62c.25,1.66.57,3.31.85,5,.16.83.25,1.67.48,2.49.41,1.66.68,3.35,1.11,5,.34,1.36.69,2.73,1,4.1.23.75.48,1.49.66,2.25.76,2.86,1.7,5.66,2.63,8.47a2.13,2.13,0,0,1,.12.55l0,.25.18.09a1.73,1.73,0,0,1,.13.35,17.3,17.3,0,0,0,.7,1.94l.29.78a1.08,1.08,0,0,1,.07.49,12.34,12.34,0,0,1-1.43-.54c-.78-.32-1.56-.64-2.31-1-1.65-.73-3.25-1.54-4.85-2.37V162l-.14,0a4.6,4.6,0,0,1-.85-.38l-1.2-.6v-.18l-.16,0a4.92,4.92,0,0,1-.94-.42v-.18h-.27V160l-.14,0a3.84,3.84,0,0,1-.86-.43v-.19l-.16,0a5.28,5.28,0,0,1-.94-.42v-.19h-.28v-.18h-.27v-.18h-.27v-.18h-.28V158l-.2-.07a6.37,6.37,0,0,1-1.09-.67l-1.67-1.15-.14-.12v-.18h-.28v-.18l-.16-.08c-.54-.29-1-.66-1.54-1l-.12-.11v-.18l-.55-.28v-.18l-.16-.07a10.61,10.61,0,0,1-.94-.6l-.18-.15v-.18l-.55-.28v-.18h-.18l-.37-.37-.58-.42-.15-.12v-.19l-.16-.07a3.2,3.2,0,0,1-.69-.52,4.74,4.74,0,0,1-.43-.41v-.19L28,150a3.14,3.14,0,0,1-.57-.38v-.18l-.27-.1v-.18l-.28-.09v-.18h-.18v-.19l-.27-.09v-.18l-.16-.07a3.17,3.17,0,0,1-.93-.78c-.5-.59-1.08-1.12-1.63-1.66a.33.33,0,0,1-.12-.32h-.18l-.36-.46a9.47,9.47,0,0,1-.86-.93c-1-1.06-2-2.2-2.91-3.33-.16-.22-.16-.22-.16-.4h-.19c-1.91-2.5-3.8-5-5.46-7.71-.54-.87-1.13-1.71-1.61-2.62s-1.22-2.07-1.78-3.14c-1-1.81-1.81-3.71-2.72-5.56-.41-.8-.62-1.66-1-2.45-.47-1-.8-2-1.17-3.06s-.74-2.11-1.09-3.17c-.23-.73-.48-1.46-.68-2.2s-.49-1.56-.64-2.36a8.7,8.7,0,0,0-.22-.88c-.42-1.51-.72-3-1-4.58-.17-.91-.41-1.81-.49-2.74A1.53,1.53,0,0,0,1,99.65C.22,96.6.23,93.17.07,90.05,0,88,0,85.94,0,83.88v-.66A1.07,1.07,0,0,1,.12,82.74Z"/></g></g></svg>