<svg xmlns="http://www.w3.org/2000/svg" viewBox="0 0 738.51 153"><defs><style>.cls-1{font-size:18.68px;letter-spacing:-0.06em;}.cls-1,.cls-4,.cls-5{fill:#fff;}.cls-1,.cls-6{font-family:Gotham-Medium, Gotham;font-weight:500;}.cls-2{letter-spacing:-0.08em;}.cls-3,.cls-5{font-family:Gotham-Bold, Gotham;font-weight:700;}.cls-3{letter-spacing:-0.05em;}.cls-5{font-size:60px;letter-spacing:-0.02em;}.cls-6{letter-spacing:-0.03em;}.cls-7{letter-spacing:-0.02em;}</style></defs><g id="Layer_2" data-name="Layer 2"><g id="Layer_1-2" data-name="Layer 1"><text class="cls-1" transform="translate(152.92 28.08)">THORNSBU<tspan class="cls-2" x="101.79" y="0">R</tspan><tspan x="113.8" y="0">Y </tspan><tspan class="cls-3" x="130.72" y="0">GOVERNMENT</tspan></text><path class="cls-4" d="M67.84,0c2.22,3.37,4.64,6.63,6.64,10.13a59.73,59.73,0,0,1,7.11,18.59,51,51,0,0,1,.63,14.54,52,52,0,0,1-6,19.72c-2.51,4.65-5.31,9.14-8,13.72,2,3.12,4.32,6.43,6.31,9.94a60.66,60.66,0,0,1,7.07,18.45,50.58,50.58,0,0,1,.65,14.69,58.27,58.27,0,0,1-6.1,20A83.17,83.17,0,0,1,67.84,153h-.6A71.44,71.44,0,0,1,55,130.23a53.63,53.63,0,0,1-2.4-14.12c-.36-10.41,2.68-19.91,7.57-28.89,2.05-3.75,4.58-7.24,7-11a70.15,70.15,0,0,1-9.19-14.94,50.47,50.47,0,0,1-5-17.31,67.68,67.68,0,0,1-.26-10,49.27,49.27,0,0,1,3.1-13.78A73.42,73.42,0,0,1,65.13,2.8c.68-.95,1.4-1.87,2.11-2.8Z"/><path class="cls-4" d="M130.89,119.53a9.42,9.42,0,0,1-1.57.29c-2.88,0-5.78.17-8.66,0-7.38-.5-14.63-1.74-21.45-4.77a80.23,80.23,0,0,1-7.12-3.72,2.68,2.68,0,0,1-1.19-1.79,56,56,0,0,0-4.64-18.35A150.36,150.36,0,0,0,79,77.48a1.55,1.55,0,0,1,0-2A74.58,74.58,0,0,0,89.47,52a78.23,78.23,0,0,0,1.35-8.22,3.25,3.25,0,0,1,1.84-2.56,56.32,56.32,0,0,1,17-6.54,82.8,82.8,0,0,1,20.3-1.5,3.85,3.85,0,0,1,1,.29v.6a1.82,1.82,0,0,0-.29.45,70.49,70.49,0,0,1-8.75,18.24,56,56,0,0,1-10.78,12.06C104,70.72,95.86,74,87,75.61l-4.44.8c2.5.64,5,1,7.44,1.6a49.1,49.1,0,0,1,21.93,10.78,56.23,56.23,0,0,1,13.59,17.62c2,4.07,3.63,8.34,5.42,12.53Z"/><path class="cls-4" d="M0,75.31c1.57-3.17,4.17-4.25,6.86-2.86a4.61,4.61,0,0,1,2.4,4.64A4.69,4.69,0,0,1,5.94,81,4.9,4.9,0,0,1,0,77.7Z"/><path class="cls-4" d="M52.91,76.51c-2.83-.55-5.3-1-7.74-1.51a49.43,49.43,0,0,1-20-9.15A56.24,56.24,0,0,1,10.87,49,79,79,0,0,1,4.43,34.66c-.4-1.25,0-1.5,1.07-1.5,3,0,6-.17,9,.05C21.79,33.73,29,34.94,35.77,38a70.43,70.43,0,0,1,7.5,3.94c.56.33.85,1.46.92,2.25a51.94,51.94,0,0,0,4.08,16.38c2.22,5.08,5,9.93,7.58,14.84a1.8,1.8,0,0,1,.06,2.19,76.8,76.8,0,0,0-10.36,23.26c-.76,3.06-1.08,6.23-1.64,9.35a1.53,1.53,0,0,1-.51,1,55,55,0,0,1-18.23,7.22,83,83,0,0,1-19.26,1.49c-1.85,0-2-.16-1.41-1.82A73.74,73.74,0,0,1,16.78,95.39,49.6,49.6,0,0,1,45.07,78C47.53,77.44,50,77.05,52.91,76.51Z"/><path class="cls-4" d="M31.84,8.51a75.69,75.69,0,0,1,15.44,9.1C46.12,22.51,45,27.31,43.89,32l-13.38-5.2A73.27,73.27,0,0,1,31.84,8.51Z"/><path class="cls-4" d="M31.84,144.5c-1.42-6.25-1.46-12.38-1.33-18.27L43.9,121q1.6,6.85,3.37,14.36A74.87,74.87,0,0,1,31.84,144.5Z"/><path class="cls-4" d="M103.66,8.58c.41,6.25.81,12.33,1.19,18L91.21,31.93C90.1,27.61,89,23.2,87.87,18.77a1.84,1.84,0,0,1,.37-1.58,84.2,84.2,0,0,1,14.35-8.43A7.31,7.31,0,0,1,103.66,8.58Z"/><path class="cls-4" d="M91.21,121.07l13.63,5.35c-.37,5.61-.77,11.73-1.19,18.08-.72-.24-1-.31-1.32-.44a82.27,82.27,0,0,1-14-8.13,1.34,1.34,0,0,1-.52-1.74C89,129.8,90.11,125.37,91.21,121.07Z"/><path class="cls-4" d="M126,72a4.38,4.38,0,0,1,4.61,4.45,4.63,4.63,0,0,1-9.25.25C121.45,74.35,123,71.73,126,72Z"/><text class="cls-5" transform="translate(152.92 81.06)">Public Transport for<tspan class="cls-6"><tspan x="0" y="55">T</tspan><tspan class="cls-7" x="37.32" y="55">hornsbury</tspan></tspan></text></g></g></svg>