<svg xmlns="http://www.w3.org/2000/svg" viewBox="0 0 573.03 153"><defs><style>.cls-1{fill:#fff;}.cls-2{isolation:isolate;}</style></defs><g id="Layer_2" data-name="Layer 2"><g id="Layer_1-2" data-name="Layer 1"><g id="Layer_2-2" data-name="Layer 2"><g id="Layer_1-2-2" data-name="Layer 1-2"><path class="cls-1" d="M67.84,0c2.22,3.37,4.64,6.63,6.64,10.13a59.76,59.76,0,0,1,7.11,18.59,51,51,0,0,1,.63,14.54,51.86,51.86,0,0,1-6,19.72c-2.51,4.65-5.31,9.14-8,13.72,2,3.12,4.32,6.43,6.31,9.94a60.5,60.5,0,0,1,7.07,18.45,50.62,50.62,0,0,1,.65,14.69,58.28,58.28,0,0,1-6.1,20A83.16,83.16,0,0,1,67.84,153h-.6A71.41,71.41,0,0,1,55,130.23a53.77,53.77,0,0,1-2.4-14.12c-.36-10.41,2.68-19.91,7.57-28.89,2-3.75,4.58-7.24,7-11A70.38,70.38,0,0,1,58,61.28,50.39,50.39,0,0,1,53,44a68.12,68.12,0,0,1-.26-10,49.38,49.38,0,0,1,3.1-13.78A73.53,73.53,0,0,1,65.13,2.8c.68-.95,1.4-1.87,2.11-2.8Z"/><path class="cls-1" d="M130.89,119.53a9.24,9.24,0,0,1-1.57.29c-2.88,0-5.78.17-8.66,0-7.38-.5-14.63-1.74-21.45-4.77a80.23,80.23,0,0,1-7.12-3.72,2.66,2.66,0,0,1-1.19-1.79,55.79,55.79,0,0,0-4.64-18.35A150.8,150.8,0,0,0,79,77.48a1.54,1.54,0,0,1,0-2A74.56,74.56,0,0,0,89.47,52a76.11,76.11,0,0,0,1.35-8.22,3.26,3.26,0,0,1,1.84-2.56,56.18,56.18,0,0,1,17-6.54,82.8,82.8,0,0,1,20.3-1.5,3.94,3.94,0,0,1,1,.29v.6a1.65,1.65,0,0,0-.29.45,70.32,70.32,0,0,1-8.75,18.24,56,56,0,0,1-10.78,12.06A51.33,51.33,0,0,1,87,75.61l-4.44.8c2.5.64,5,1,7.44,1.6a49.15,49.15,0,0,1,21.93,10.78,56.2,56.2,0,0,1,13.59,17.62c2,4.07,3.63,8.34,5.42,12.53Z"/><path class="cls-1" d="M0,75.31c1.57-3.17,4.17-4.25,6.86-2.86a4.62,4.62,0,0,1,2.4,4.64A4.69,4.69,0,0,1,5.94,81,4.9,4.9,0,0,1,0,77.7Z"/><path class="cls-1" d="M52.91,76.51c-2.83-.55-5.3-1-7.74-1.51a49.45,49.45,0,0,1-20-9.15A56.39,56.39,0,0,1,10.87,49,78.5,78.5,0,0,1,4.43,34.66c-.4-1.25,0-1.5,1.07-1.5,3,0,6-.17,9,.05,7.29.52,14.5,1.73,21.27,4.79a70.43,70.43,0,0,1,7.5,3.94c.56.33.85,1.46.92,2.25a52.08,52.08,0,0,0,4.08,16.38c2.22,5.08,5,9.93,7.58,14.84a1.8,1.8,0,0,1,.06,2.19,76.93,76.93,0,0,0-10.36,23.26c-.76,3.06-1.08,6.23-1.64,9.35a1.54,1.54,0,0,1-.51,1,55.12,55.12,0,0,1-18.23,7.22,83.49,83.49,0,0,1-19.26,1.49c-1.85,0-2-.16-1.41-1.82A73.81,73.81,0,0,1,16.78,95.39,49.59,49.59,0,0,1,45.07,78C47.53,77.44,50,77.05,52.91,76.51Z"/><path class="cls-1" d="M31.84,8.51a75.85,75.85,0,0,1,15.44,9.1C46.12,22.51,45,27.31,43.89,32L30.51,26.8A73.37,73.37,0,0,1,31.84,8.51Z"/><path class="cls-1" d="M31.84,144.5c-1.42-6.25-1.46-12.38-1.33-18.27L43.9,121q1.6,6.85,3.37,14.36A75.22,75.22,0,0,1,31.84,144.5Z"/><path class="cls-1" d="M103.66,8.58c.41,6.25.81,12.33,1.19,18L91.21,31.93C90.1,27.61,89,23.2,87.87,18.77a1.83,1.83,0,0,1,.37-1.58,83.93,83.93,0,0,1,14.35-8.43A6.46,6.46,0,0,1,103.66,8.58Z"/><path class="cls-1" d="M91.21,121.07l13.63,5.35c-.37,5.61-.77,11.73-1.19,18.08-.72-.24-1-.31-1.32-.44a82.48,82.48,0,0,1-14-8.13,1.34,1.34,0,0,1-.52-1.74C89,129.8,90.11,125.37,91.21,121.07Z"/><path class="cls-1" d="M126,72a4.37,4.37,0,0,1,4.6,4.14c0,.11,0,.21,0,.31a4.63,4.63,0,0,1-9.25.25C121.45,74.35,123,71.73,126,72Z"/><g class="cls-2"><g class="cls-2"><path class="cls-1" d="M178.05,72.06h-7.44V36.9H157.29V30.06h34.08V36.9H178.05Z"/><path class="cls-1" d="M202.89,54.36v17.7h-7.32v-42h7.32V47.52h20.16V30.06h7.32v42h-7.32V54.36Z"/><path class="cls-1" d="M278,59.4a21.1,21.1,0,0,1-4.56,6.93,21.89,21.89,0,0,1-15.84,6.45,22.46,22.46,0,0,1-8.88-1.71,20.84,20.84,0,0,1-11.4-11.55,22.59,22.59,0,0,1,0-16.8,21.1,21.1,0,0,1,4.56-6.93,21.89,21.89,0,0,1,15.84-6.45,22.46,22.46,0,0,1,8.88,1.71A20.84,20.84,0,0,1,278,42.6a22.59,22.59,0,0,1,0,16.8Zm-7.17-14.07a14.71,14.71,0,0,0-2.94-4.77,14,14,0,0,0-4.53-3.24,14.52,14.52,0,0,0-11.49,0,13.58,13.58,0,0,0-4.47,3.18,14.63,14.63,0,0,0-2.91,4.74,16.49,16.49,0,0,0,0,11.58,14.71,14.71,0,0,0,2.94,4.77A14,14,0,0,0,252,64.8a14.52,14.52,0,0,0,11.49,0,13.58,13.58,0,0,0,4.47-3.18,14.63,14.63,0,0,0,2.91-4.74,16.49,16.49,0,0,0,0-11.58Z"/><path class="cls-1" d="M311.91,72.06,301.56,57.42h-9.27V72.06H285v-42h18.72a21.33,21.33,0,0,1,6.51.93,14.13,14.13,0,0,1,4.92,2.64,11.37,11.37,0,0,1,3.09,4.2,15,15,0,0,1,.33,10.26,12.16,12.16,0,0,1-2.07,3.66,12.45,12.45,0,0,1-3.15,2.7,15.62,15.62,0,0,1-4.05,1.71l11.34,15.9ZM309.5,38.5a10.24,10.24,0,0,0-6.44-1.78H292.29V50.88h10.83A9.62,9.62,0,0,0,309.44,49a6.33,6.33,0,0,0,2.35-5.18A6.24,6.24,0,0,0,309.5,38.5Z"/><path class="cls-1" d="M354,30.06h7.32v42h-6.17L332.07,42.18V72.06h-7.32v-42h6.82L354,59.1Z"/><path class="cls-1" d="M375.15,43.2a4.41,4.41,0,0,0,1.53,1.68,12.28,12.28,0,0,0,3.07,1.44c1.3.44,3,.9,5,1.38a47.53,47.53,0,0,1,5.87,1.86,14.65,14.65,0,0,1,4.24,2.49,10,10,0,0,1,2.56,3.42,11.19,11.19,0,0,1,.87,4.59,12.46,12.46,0,0,1-1.1,5.34,11.38,11.38,0,0,1-3.07,4,13.49,13.49,0,0,1-4.72,2.46,20.62,20.62,0,0,1-6.05.84A26.48,26.48,0,0,1,374,71a25.39,25.39,0,0,1-8.22-5.07l4.44-5.28a25.8,25.8,0,0,0,6.18,4,17,17,0,0,0,7.08,1.41,9.15,9.15,0,0,0,5.43-1.44,4.55,4.55,0,0,0,2-3.9,5.08,5.08,0,0,0-.39-2,4.11,4.11,0,0,0-1.45-1.65,12.06,12.06,0,0,0-2.88-1.41,49.21,49.21,0,0,0-4.79-1.38,50.62,50.62,0,0,1-6-1.74,15.12,15.12,0,0,1-4.39-2.4,9.45,9.45,0,0,1-2.71-3.48,12,12,0,0,1-.93-5,11.42,11.42,0,0,1,1.07-5,11.64,11.64,0,0,1,2.94-3.87,13.14,13.14,0,0,1,4.51-2.49,18.31,18.31,0,0,1,5.76-.87A24.06,24.06,0,0,1,390,30.81a24.72,24.72,0,0,1,6.93,3.93l-4,5.58a25.74,25.74,0,0,0-5.7-3.21,15.45,15.45,0,0,0-5.7-1.11,7.76,7.76,0,0,0-5,1.47,4.46,4.46,0,0,0-1.8,3.57A5.07,5.07,0,0,0,375.15,43.2Z"/><path class="cls-1" d="M432.21,33a9.41,9.41,0,0,1,3.72,7.87,10.71,10.71,0,0,1-.51,3.43,9.67,9.67,0,0,1-1.31,2.61,9.24,9.24,0,0,1-1.9,2A16,16,0,0,1,430,50.26a22.26,22.26,0,0,1,3.37,1.52A10.8,10.8,0,0,1,436,53.85a8.32,8.32,0,0,1,1.7,2.85,11.06,11.06,0,0,1,.6,3.8,10.7,10.7,0,0,1-1.11,5A10.22,10.22,0,0,1,434,69.1a14.83,14.83,0,0,1-4.92,2.21,25.08,25.08,0,0,1-6.35.75h-19.4v-42h18.8Q428.5,30.06,432.21,33ZM426.45,46.4A4.85,4.85,0,0,0,428.61,42a4.71,4.71,0,0,0-1.89-4,8.94,8.94,0,0,0-5.47-1.42H410.67V47.82h10A10.23,10.23,0,0,0,426.45,46.4Zm2.34,17.65A4.92,4.92,0,0,0,431,59.7a4.84,4.84,0,0,0-2.13-4.2c-1.41-1-3.58-1.5-6.49-1.5H410.67V65.52h12.2A10.37,10.37,0,0,0,428.79,64.05Z"/><path class="cls-1" d="M478.35,53.88a24,24,0,0,1-1.29,8.22A16.13,16.13,0,0,1,473.43,68a14.68,14.68,0,0,1-5.67,3.54,22.43,22.43,0,0,1-7.47,1.17,22,22,0,0,1-7.38-1.17A14.89,14.89,0,0,1,447.27,68a15.64,15.64,0,0,1-3.6-5.79,23.3,23.3,0,0,1-1.26-8V30.06h7.32V53.94q0,5.88,2.83,8.94a10.18,10.18,0,0,0,7.85,3.06A10.3,10.3,0,0,0,468.19,63Q471,60.06,471,54.24V30.06h7.32Z"/></g><g class="cls-2"><path class="cls-1" d="M514.23,72.06,503.88,57.42h-9.27V72.06h-7.32v-42H506a21.33,21.33,0,0,1,6.51.93,14.13,14.13,0,0,1,4.92,2.64,11.37,11.37,0,0,1,3.09,4.2,15,15,0,0,1,.33,10.26,12.16,12.16,0,0,1-2.07,3.66,12.45,12.45,0,0,1-3.15,2.7,15.62,15.62,0,0,1-4.05,1.71l11.34,15.9ZM511.82,38.5a10.24,10.24,0,0,0-6.44-1.78H494.61V50.88h10.83A9.62,9.62,0,0,0,511.76,49a6.33,6.33,0,0,0,2.35-5.18A6.24,6.24,0,0,0,511.82,38.5Z"/></g><g class="cls-2"><path class="cls-1" d="M545.67,72.06h-7.44V55.5L521.55,30.06h8.7L542,48.66l11.88-18.6h8.46L545.67,55.32Z"/></g><g class="cls-2"><path class="cls-1" d="M190.38,119.83a25.36,25.36,0,0,1-10.23,2,24,24,0,0,1-9-1.62,20.68,20.68,0,0,1-7-4.5,20.34,20.34,0,0,1-4.53-6.84,22.6,22.6,0,0,1-1.62-8.64v-.12a21.47,21.47,0,0,1,13.2-20,22.3,22.3,0,0,1,8.82-1.71,30.94,30.94,0,0,1,5.13.39,24.45,24.45,0,0,1,4.29,1.11,20,20,0,0,1,3.72,1.8,27.74,27.74,0,0,1,3.36,2.46l-5.82,7a23.45,23.45,0,0,0-2.4-1.8A15.65,15.65,0,0,0,185.88,88a14.65,14.65,0,0,0-2.79-.84,16.86,16.86,0,0,0-3.3-.3,10.75,10.75,0,0,0-4.71,1,12.8,12.8,0,0,0-6.42,7,13.81,13.81,0,0,0-.93,5.08v.12a14.79,14.79,0,0,0,.93,5.32,12.56,12.56,0,0,0,2.64,4.24,12,12,0,0,0,4,2.8,12.89,12.89,0,0,0,5.13,1,14.56,14.56,0,0,0,8.7-2.54v-6h-9.3v-8h18.24v18.24A30.76,30.76,0,0,1,190.38,119.83Z"/><path class="cls-1" d="M244.47,108.49a21.48,21.48,0,0,1-11.73,11.58,24.3,24.3,0,0,1-17.91,0,22.23,22.23,0,0,1-7.05-4.62,20.67,20.67,0,0,1-4.62-6.84,21.55,21.55,0,0,1-1.65-8.43v-.12a21.22,21.22,0,0,1,1.68-8.43,21.48,21.48,0,0,1,11.73-11.58,24.3,24.3,0,0,1,17.91,0,22.23,22.23,0,0,1,7,4.62,20.67,20.67,0,0,1,4.62,6.84,21.55,21.55,0,0,1,1.65,8.43v.12A21.22,21.22,0,0,1,244.47,108.49Zm-8-8.43a14,14,0,0,0-.93-5.1,12.59,12.59,0,0,0-6.69-7,12.31,12.31,0,0,0-5.1-1,12.56,12.56,0,0,0-5.13,1,11.73,11.73,0,0,0-4,2.82,13.29,13.29,0,0,0-2.58,4.17,13.75,13.75,0,0,0-.93,5.07v.12a14,14,0,0,0,.93,5.1,12.66,12.66,0,0,0,6.66,7,12.25,12.25,0,0,0,5.13,1.05,12.62,12.62,0,0,0,5.1-1,11.66,11.66,0,0,0,4-2.82,13.29,13.29,0,0,0,2.58-4.17,13.75,13.75,0,0,0,.93-5.07Z"/><path class="cls-1" d="M272.31,121.36h-8.16l-17-42.3h10.2l11,29.58,11-29.58h10Z"/><path class="cls-1" d="M292.17,121.06v-42h31.62v8.22h-22.5V95.8h19.8V104h-19.8v8.82h22.8v8.22Z"/><path class="cls-1" d="M354.27,121.06l-9-13.44H338v13.44h-9.24v-42H348q7.5,0,11.67,3.66t4.17,10.2V93a13.17,13.17,0,0,1-2.49,8.31,14.43,14.43,0,0,1-6.51,4.71l10.26,15Zm.18-27.66a5.36,5.36,0,0,0-1.92-4.5,8.48,8.48,0,0,0-5.34-1.5H338V99.46h9.36a7.67,7.67,0,0,0,5.25-1.62,5.48,5.48,0,0,0,1.83-4.32Z"/><path class="cls-1" d="M398,121.06l-20.34-26.7v26.7h-9.12v-42h8.52l19.68,25.86V79.06h9.12v42Z"/><path class="cls-1" d="M445.23,121.06V93.64l-11.82,17.94h-.24l-11.7-17.76v27.24h-9.12v-42h10l11,17.76,11-17.76h10v42Z"/><path class="cls-1" d="M460.83,121.06v-42h31.62v8.22H470V95.8h19.8V104H470v8.82h22.8v8.22Z"/><path class="cls-1" d="M526.89,121.06l-20.34-26.7v26.7h-9.12v-42H506l19.68,25.86V79.06h9.12v42Z"/><path class="cls-1" d="M560.25,87.58v33.48H551V87.58H538.23V79.06H573v8.52Z"/></g></g></g></g></g></g></svg>