<svg xmlns="http://www.w3.org/2000/svg" viewBox="0 0 1670.31 175.18"><defs><style>.cls-1{fill:#fff;}</style></defs><g id="Layer_2" data-name="Layer 2"><g id="Layer_1-2" data-name="Layer 1"><path class="cls-1" d="M298.68,27.29h-20V92.63H262.19V27.29H242.1V11h56.58Z" transform="translate(0 -9.32)"/><path class="cls-1" d="M369.9,11V92.63H353.56V59.94H324.25V92.63H307.9V11h16.35V43.69h29.31V11Z" transform="translate(0 -9.32)"/><path class="cls-1" d="M380.54,51.94A42.44,42.44,0,1,1,422.9,94.2,42.59,42.59,0,0,1,380.54,51.94Zm68.28-.1A25.87,25.87,0,1,0,422.9,77.6,26,26,0,0,0,448.82,51.84Z" transform="translate(0 -9.32)"/><path class="cls-1" d="M518.47,92.63l-26-38.56V92.63h-16.4L476.06,11h26.62c15.24,0,27.74,11.75,27.74,26.42,0,10.48-6.33,19.64-15.08,22.73l23.18,32.44Zm-26-44.84,10.53.05a10.43,10.43,0,0,0,10.52-10.27A10.5,10.5,0,0,0,503,27.29H492.46Z" transform="translate(0 -9.32)"/><path class="cls-1" d="M611.91,10.84V94.15h-.75L562.72,47V92.74h-16.4V9.53h.81l48.33,47V10.84Z" transform="translate(0 -9.32)"/><path class="cls-1" d="M621.84,78.56,635,69.35c3.6,5.77,8.81,8.4,15.84,8.4,7.7,0,12.86-3.13,12.86-7.49,0-6-9.77-10.68-18.32-14.93-9.16-4.55-19.23-9.56-19.23-22.57C626.1,18.64,638,9.32,653,9.32c11.14,0,20.35,4.61,24,14.48L665,32.25c-2.43-4.86-7.14-6.83-11.7-6.83-6.12,0-10.67,3.54-10.67,7.74,0,4.86,6.17,6.53,15.53,10.94,13.52,6.37,22,13.26,22,25.81,0,14.88-12.15,24.34-29.61,24.34C637.18,94.25,627.31,88.69,621.84,78.56Z" transform="translate(0 -9.32)"/><path class="cls-1" d="M746.36,67.88c0,12.05-8.66,24.75-25.46,24.75H690.08V11h22.27C726.82,11,736,21.67,736,32.66c0,8.65-5.72,14-7.7,14C736.19,46.68,746.36,54.78,746.36,67.88ZM706.43,27V42.93h6.63a8,8,0,0,0,7.69-8.1A7.63,7.63,0,0,0,713.36,27Zm23.94,39.73c0-4.71-3.24-9.41-11-9.41h-12.9V76.64h13C724.7,76.64,730.37,73,730.37,66.72Z" transform="translate(0 -9.32)"/><path class="cls-1" d="M754.87,62.47V11h16.5V62.42a15,15,0,1,0,30,0V11h16.51V62.47c0,18.47-14.13,31.94-31.49,31.94S754.87,80.94,754.87,62.47Z" transform="translate(0 -9.32)"/><path class="cls-1" d="M873.72,92.63l-26-38.56V92.63h-16.4L831.31,11h26.62c15.23,0,27.74,11.75,27.74,26.42,0,10.48-6.33,19.64-15.09,22.73l23.18,32.44Zm-26-44.84,10.52.05a10.43,10.43,0,0,0,10.53-10.27,10.5,10.5,0,0,0-10.53-10.28H847.71Z" transform="translate(0 -9.32)"/><path class="cls-1" d="M911.69,57.61,886.43,11H905l14.88,28.35L934.72,11h18.57L928,57.61v35H911.69Z" transform="translate(0 -9.32)"/><path class="cls-1" d="M325.41,143.56c0,25.61-17.67,40.54-38.92,40.54-24.05,0-43-19-43-42.31a42.63,42.63,0,0,1,42.37-42.57c10.58.1,21.86,5,29.86,12.75l-9.11,13.62c-6.38-6.23-13.67-9.77-20.95-9.77a26,26,0,0,0-25.46,26c0,14.17,11,25.81,27,25.81,11.64,0,20-6,20.55-15.79h-21.1V136.67H325A63.39,63.39,0,0,1,325.41,143.56Z" transform="translate(0 -9.32)"/><path class="cls-1" d="M332.5,141.79a42.44,42.44,0,1,1,42.37,42.26A42.6,42.6,0,0,1,332.5,141.79Zm68.28-.1a25.87,25.87,0,1,0-25.91,25.76A26,26,0,0,0,400.78,141.69Z" transform="translate(0 -9.32)"/><path class="cls-1" d="M491.39,100.89,453.23,184.5h-.61l-38-83.61H432l20.9,47.37,21-47.37Z" transform="translate(0 -9.32)"/><path class="cls-1" d="M516,117V133h28.14v16.35H516v16.85h32.79v16.3H499.55V100.89h49.19V117Z" transform="translate(0 -9.32)"/><path class="cls-1" d="M603.21,182.48l-26-38.57v38.57h-16.4l-.05-81.59h26.62c15.23,0,27.74,11.74,27.74,26.42,0,10.48-6.33,19.64-15.09,22.73l23.18,32.44Zm-26-44.84,10.52.05a10.28,10.28,0,1,0,0-20.55H577.2Z" transform="translate(0 -9.32)"/><path class="cls-1" d="M696.65,100.69V184h-.76l-48.44-47.12v45.7H631.06V99.37h.81l48.33,47v-45.7Z" transform="translate(0 -9.32)"/><path class="cls-1" d="M790.75,98.87v83.61h-16.4V147l-23.48,34.16h-.1L727.23,147v35.53h-16.4V98.87h.91l39.08,53.9,39-53.9Z" transform="translate(0 -9.32)"/><path class="cls-1" d="M821.33,117V133h28.14v16.35H821.33v16.85h32.8v16.3h-49.2V100.89h49.2V117Z" transform="translate(0 -9.32)"/><path class="cls-1" d="M931.78,100.69V184H931l-48.44-47.12v45.7h-16.4V99.37H867l48.34,47v-45.7Z" transform="translate(0 -9.32)"/><path class="cls-1" d="M997.59,117.14H977.54v65.34H961.09V117.14H941V100.89h56.59Z" transform="translate(0 -9.32)"/><path class="cls-1" d="M1056.58,60.93c13.36,0,19.45,9.56,19.62,19.23.22,9.89-5.93,19.89-19.62,19.89h-14.81V60.93ZM1048,94h8.61c9.56,0,13.58-7,13.41-13.92-.16-6.59-4.19-13.19-13.41-13.19H1048Z" transform="translate(0 -9.32)"/><path class="cls-1" d="M1086.71,88.43c.5,4.19,4,6.93,9,6.93,2.79,0,6.31-1.06,8-3l3.74,3.63c-2.85,3.13-7.6,4.7-11.85,4.7-9,0-14.86-5.76-14.86-14.59,0-8.39,5.87-14.37,14.47-14.37,8.89,0,14.93,5.42,13.86,16.66Zm16.82-4.86c-.33-4.36-3.52-6.65-8.16-6.65-4.19,0-7.66,2.29-8.55,6.65Z" transform="translate(0 -9.32)"/><path class="cls-1" d="M1114.93,112.85V72.5h5.43l.33,4.47a11.51,11.51,0,0,1,9.73-5c8.21.06,13.91,6,13.91,14.36s-5.36,14.37-13.91,14.37c-3.36,0-7.66-1.23-9.73-4.64v16.82Zm23.65-26.55c0-5.19-3.47-8.77-8.72-8.77s-8.67,3.86-8.67,8.77a8.53,8.53,0,0,0,8.67,8.78A8.44,8.44,0,0,0,1138.58,86.3Z" transform="translate(0 -9.32)"/><path class="cls-1" d="M1172.62,72.5h5.59v27.55h-5.48l-.28-4.47c-1.85,3.52-6.09,5.2-9.5,5.2-8,.06-14.14-5.14-14.14-14.53,0-9.22,6.31-14.37,14.25-14.37,3.91,0,7.66,1.85,9.39,5Zm-18.06,13.75c0,5.7,4,9.17,9,9.17,11.9,0,11.9-18.28,0-18.28A8.67,8.67,0,0,0,1154.56,86.25Z" transform="translate(0 -9.32)"/><path class="cls-1" d="M1191.4,72.5l.39,3.63c2-3.52,5.14-4.25,8.1-4.25a10.53,10.53,0,0,1,6.82,2.35l-2.62,5a7,7,0,0,0-4.87-1.67c-4,0-7.43,2.45-7.43,7.54v14.92H1186V72.5Z" transform="translate(0 -9.32)"/><path class="cls-1" d="M1219.51,64.56v8h8v5h-8.1V90.67c0,2.9,1.28,4.52,4,4.52a8.33,8.33,0,0,0,3.53-1l1.67,4.92a13,13,0,0,1-5.53,1.23c-6,.17-9.39-3.24-9.39-9.72V77.53h-5.31v-5h5.31V65.18Z" transform="translate(0 -9.32)"/><path class="cls-1" d="M1252.21,100.05V84.91c0-4.08-2.35-7.49-6.43-7.49s-6.65,3.41-6.65,7.49v15.14h-5.76V72.44h5.37l.39,3.69c1.57-3,4.81-4.13,7.72-4.13,3.52,0,7.09,1.45,8.66,5.53a10,10,0,0,1,9.44-5.48c7.61,0,11.69,4.81,11.69,12.75v15.25h-5.82V84.8c0-4.08-2-7.33-6.09-7.33s-6.71,3.36-6.71,7.44v15.14Z" transform="translate(0 -9.32)"/><path class="cls-1" d="M1288.38,88.43c.5,4.19,4,6.93,9,6.93,2.8,0,6.32-1.06,8-3l3.74,3.63c-2.85,3.13-7.6,4.7-11.85,4.7-9,0-14.87-5.76-14.87-14.59,0-8.39,5.87-14.37,14.48-14.37,8.89,0,14.93,5.42,13.86,16.66Zm16.82-4.86c-.34-4.36-3.52-6.65-8.16-6.65-4.19,0-7.66,2.29-8.55,6.65Z" transform="translate(0 -9.32)"/><path class="cls-1" d="M1337.51,100.05V85.3c0-4.75-2.69-7.94-7.44-7.94-4.58,0-7.71,3.75-7.71,8.27v14.42h-5.76V72.44h5.26l.33,4a12,12,0,0,1,9.28-4.42c6.71,0,11.85,4.75,11.85,13.19v14.81Z" transform="translate(0 -9.32)"/><path class="cls-1" d="M1359.08,64.56v8h8.05v5H1359V90.67c0,2.9,1.28,4.52,4,4.52a8.33,8.33,0,0,0,3.52-1l1.67,4.92a13,13,0,0,1-5.53,1.23c-6,.17-9.39-3.24-9.39-9.72V77.53H1348v-5h5.31V65.18Z" transform="translate(0 -9.32)"/><path class="cls-1" d="M1413.64,86.3c0,8.17-5.65,14.31-14.31,14.31s-14.2-6.14-14.2-14.31,5.65-14.36,14.2-14.36S1413.64,78.2,1413.64,86.3Zm-22.75,0c0,4.92,3.18,9,8.44,9s8.49-4,8.49-9-3.46-9-8.49-9C1394.07,77.25,1390.89,81.44,1390.89,86.3Z" transform="translate(0 -9.32)"/><path class="cls-1" d="M1422.25,100.05V77.92H1417V72.83h5.26v-2c0-6.87,4.3-10.45,9.94-10.45a12.15,12.15,0,0,1,6.77,2.18l-2.24,4.3a7.45,7.45,0,0,0-4.19-1.45c-2.63,0-4.47,1.73-4.47,5.42v2h8.33v5.09h-8.33v22.13Z" transform="translate(0 -9.32)"/><path class="cls-1" d="M1050.65,115H1037.8v-5.65h32V115H1057V148.5h-6.32Z" transform="translate(0 -9.32)"/><path class="cls-1" d="M1075,120.94l.39,3.64c2-3.53,5.14-4.25,8.1-4.25a10.53,10.53,0,0,1,6.82,2.35l-2.62,5a7.05,7.05,0,0,0-4.87-1.68c-4,0-7.43,2.46-7.43,7.54V148.5h-5.76V120.94Z" transform="translate(0 -9.32)"/><path class="cls-1" d="M1115.55,120.94h5.59V148.5h-5.48l-.28-4.47c-1.85,3.52-6.09,5.19-9.5,5.19-8.05.06-14.14-5.14-14.14-14.53,0-9.22,6.31-14.36,14.25-14.36,3.91,0,7.66,1.84,9.39,5Zm-18.06,13.75c0,5.7,4,9.17,9,9.17,11.9,0,11.9-18.28,0-18.28A8.68,8.68,0,0,0,1097.49,134.69Z" transform="translate(0 -9.32)"/><path class="cls-1" d="M1149.87,148.5V133.74c0-4.75-2.69-7.93-7.44-7.93-4.58,0-7.71,3.74-7.71,8.27V148.5H1129V120.89h5.26l.33,4a12,12,0,0,1,9.28-4.41c6.71,0,11.85,4.75,11.85,13.19V148.5Z" transform="translate(0 -9.32)"/><path class="cls-1" d="M1180.66,127.71a9.85,9.85,0,0,0-7.26-2.58c-3.52,0-5.87,1.12-5.87,3.3s2.46,3.19,6,3.52c5.09.45,11.74,1.57,11.68,8.67,0,5.14-4.58,8.72-11.74,8.72-4.47,0-8.94-1-12.57-5.09l3-4.08a13.47,13.47,0,0,0,9.67,4.08c2.74,0,5.81-1,5.86-3.58s-2.29-3.41-6.37-3.8c-5.19-.5-11.18-2.18-11.23-8.27s6.31-8.38,11.46-8.38c4.24,0,7.54,1,10.62,3.69Z" transform="translate(0 -9.32)"/><path class="cls-1" d="M1191,161.3V120.94h5.42l.34,4.47a11.49,11.49,0,0,1,9.72-5c8.22.06,13.92,6,13.92,14.37s-5.37,14.36-13.92,14.36c-3.35,0-7.66-1.23-9.72-4.64V161.3Zm23.64-26.55c0-5.2-3.46-8.78-8.72-8.78s-8.66,3.86-8.66,8.78a8.69,8.69,0,1,0,17.38,0Z" transform="translate(0 -9.32)"/><path class="cls-1" d="M1253.27,134.75c0,8.16-5.64,14.31-14.31,14.31s-14.19-6.15-14.19-14.31,5.64-14.37,14.19-14.37S1253.27,126.64,1253.27,134.75Zm-22.75,0c0,4.92,3.19,8.94,8.44,8.94s8.5-4,8.5-8.94-3.47-9.06-8.5-9.06C1233.71,125.69,1230.52,129.89,1230.52,134.75Z" transform="translate(0 -9.32)"/><path class="cls-1" d="M1264.73,120.94l.39,3.64c2-3.53,5.14-4.25,8.11-4.25a10.57,10.57,0,0,1,6.82,2.35l-2.63,5a7,7,0,0,0-4.86-1.68c-4,0-7.44,2.46-7.44,7.54V148.5h-5.76V120.94Z" transform="translate(0 -9.32)"/><path class="cls-1" d="M1292.85,113v8h8v5h-8.1v13.14c0,2.9,1.29,4.53,4,4.53a8.44,8.44,0,0,0,3.52-.95l1.68,4.91a13,13,0,0,1-5.54,1.23c-6,.17-9.39-3.24-9.39-9.72V126h-5.31v-5H1287v-7.38Z" transform="translate(0 -9.32)"/><path class="cls-1" d="M1349.52,137.38c0,2.79,1,5.19,3.86,5.19v6c-3,.11-6-.89-7.16-5.09-2.4,3.69-6.59,5.59-11.68,5.59-8.1,0-14.86-4.08-14.86-12.13a9.42,9.42,0,0,1,6.48-8.49,8.88,8.88,0,0,1-5.48-8.22c.06-7.77,6.93-11.4,14.42-11.4,6.65,0,13.81,2.35,13.86,10.73h-5.86c0-4.25-3.86-5.42-8.17-5.42-6.14,0-8.21,3.24-8.16,6.09,0,4.47,5,5.76,8.16,5.76h17.89v5h-3.3Zm-23.7-.34c0,4.36,4,6.37,9,6.37,3.13,0,8.83-1.45,8.83-6V131h-9.05C1328.62,131,1325.82,134.25,1325.82,137Z" transform="translate(0 -9.32)"/><path class="cls-1" d="M1400.22,140.28H1379l-3.69,8.22h-6.65l17.55-39.13h6.81l17.56,39.13H1404ZM1389.66,116l-8.28,18.61h16.55Z" transform="translate(0 -9.32)"/><path class="cls-1" d="M1437.61,118.32l4.2,3.24-3.3,3.85a12.21,12.21,0,0,1,3.35,8.56,10.88,10.88,0,0,1-7.32,10.73c5.64,1.9,7.27,5.7,7.27,9,0,7.49-7.38,11.23-14.76,11.23-9,0-14.76-4.58-14.53-12.24h5.75c-.16,4.3,4.2,6.6,8.78,6.65,4.25,0,8.77-1.73,8.77-5.64s-3.52-6-8.66-6c-8.94,0-14.92-5.15-14.92-13.75,0-9.23,7.43-13.87,14.92-13.87a14.5,14.5,0,0,1,7.44,1.9ZM1418.05,134c0,5.47,4.14,8.44,9.11,8.44s8.94-3.47,8.94-8.44c0-5.43-4.19-8.5-8.94-8.5S1418.05,128.21,1418.05,134Z" transform="translate(0 -9.32)"/><path class="cls-1" d="M1453.6,120.94l.39,3.64c2-3.53,5.14-4.25,8.11-4.25a10.57,10.57,0,0,1,6.82,2.35l-2.63,5a7,7,0,0,0-4.86-1.68c-4,0-7.44,2.46-7.44,7.54V148.5h-5.76V120.94Z" transform="translate(0 -9.32)"/><path class="cls-1" d="M1479.31,112.84c0,4.75-7.15,4.75-7.15,0S1479.31,108.14,1479.31,112.84Zm-6.48,8V148.5h5.76V120.83Z" transform="translate(0 -9.32)"/><path class="cls-1" d="M1509.72,144.92a14.19,14.19,0,0,1-10.45,4.3c-7.94,0-14.54-5-14.54-14.47s6.54-14.48,14.54-14.48a13.41,13.41,0,0,1,10,4.08l-3.69,3.86a9,9,0,0,0-6.21-2.46,8.56,8.56,0,0,0-8.83,9c0,5.81,4,8.89,8.78,8.89a8.93,8.93,0,0,0,6.54-2.58Z" transform="translate(0 -9.32)"/><path class="cls-1" d="M1520.17,120.94V135.7c0,4.69,2.68,7.94,7.49,7.94,4.53,0,7.66-3.75,7.66-8.33V120.94h5.75v27.61h-5.19l-.34-4.08A11.79,11.79,0,0,1,1526,149c-6.76,0-11.63-4.87-11.63-13.2V120.94Z" transform="translate(0 -9.32)"/><path class="cls-1" d="M1554.88,109.43V148.5h-5.76V109.43Z" transform="translate(0 -9.32)"/><path class="cls-1" d="M1571.82,113v8h8v5h-8.11v13.14c0,2.9,1.29,4.53,4,4.53a8.44,8.44,0,0,0,3.52-.95l1.68,4.91a13,13,0,0,1-5.54,1.23c-6,.17-9.39-3.24-9.39-9.72V126h-5.31v-5H1566v-7.38Z" transform="translate(0 -9.32)"/><path class="cls-1" d="M1591,120.94V135.7c0,4.69,2.68,7.94,7.49,7.94,4.53,0,7.66-3.75,7.66-8.33V120.94h5.75v27.61h-5.19l-.34-4.08a11.81,11.81,0,0,1-9.5,4.48c-6.76,0-11.63-4.87-11.63-13.2V120.94Z" transform="translate(0 -9.32)"/><path class="cls-1" d="M1625.09,120.94l.39,3.64c2-3.53,5.14-4.25,8.1-4.25a10.53,10.53,0,0,1,6.82,2.35l-2.63,5a7,7,0,0,0-4.86-1.68c-4,0-7.43,2.46-7.43,7.54V148.5h-5.76V120.94Z" transform="translate(0 -9.32)"/><path class="cls-1" d="M1647.83,136.87c.51,4.19,4,6.93,9,6.93,2.8,0,6.32-1.06,8-3l3.74,3.63c-2.85,3.13-7.6,4.7-11.85,4.7-9,0-14.87-5.76-14.87-14.59,0-8.38,5.87-14.36,14.48-14.36,8.89,0,14.92,5.42,13.86,16.65Zm16.83-4.86c-.34-4.36-3.52-6.65-8.16-6.65-4.19,0-7.66,2.29-8.55,6.65Z" transform="translate(0 -9.32)"/><path class="cls-1" d="M78.1,80.94c3.79-26,11.82-44.17,29.26-64.57,1.87-2.18,3.56-4.88,6.61-5.33,4.09.15,10.12,9,12.47,12.14C142.22,44,145.85,56.67,150.27,81c19.77-11.32,34-16.31,57.62-17.44,3.91-.19,6.89.07,6.86,4.73-.16,22.88-12,47.35-28.24,63.38-22,21.65-42.08,16.51-68.45,16.31l-.18,2c12.56,6.76,39.56,5,52.53-.47,10.13-4.25,28.86-19.43,33.23-30.08,3.33.41,23.78,5.52,24.46,9.36.61,3.47-3.81,9.72-5.74,12.61-24.07,36-70.57,59.39-105.07,22.36-.93-1-2.07-3-3.07-3.71l-.21.13A55.87,55.87,0,0,1,80.1,181.41c-31.46,6-59.1-17.3-75.39-41.84C3.14,137.21-1.65,131,.58,128s19.81-8,24-8.57c14.09,23,33.55,34.84,60.63,34.86,11,0,15.57-1.57,25.42-4l0-2.45c-18.25,0-33.45,3.93-51.65-4.22C37.92,134.24,21.86,109,16,87c-1.07-4-4-17.71-2.27-21.21,1.81-3.76,8.68-2.1,11.94-1.84,21.9,1.7,34.11,7,52.43,17Z" transform="translate(0 -9.32)"/><path class="cls-1" d="M148.19,49.94c7.27-5.48,26.31-14.7,36-16.23a4.13,4.13,0,0,1,4.14,3.36c1,4.62-.71,18.71-1.52,23.27A130.51,130.51,0,0,0,164,67c-3.1,1.26-6,2.92-9.12,4.14l-.41-1.91a111.09,111.09,0,0,0-6.23-19.27ZM41.28,60.05c-1-4.22-2.93-21.19-.77-24.45a4.07,4.07,0,0,1,2.87-1.77c9-.14,28.34,11,37.08,16.25C78.09,52.91,75,64.6,74,68.61c-.27.91-.45,1.86-.66,2.79-10.64-6.62-20.82-7.93-32-11.35Z" transform="translate(0 -9.32)"/></g></g></svg>