<?xml version="1.0" encoding="utf-8"?>
<!-- Generator: Adobe Illustrator 26.0.0, SVG Export Plug-In . SVG Version: 6.00 Build 0)  -->
<svg version="1.1" id="Layer_1" xmlns="http://www.w3.org/2000/svg" xmlns:xlink="http://www.w3.org/1999/xlink" x="0px" y="0px"
	 viewBox="0 0 1439.4 242.5" style="enable-background:new 0 0 1439.4 242.5;" xml:space="preserve">
<style type="text/css">
	.st0{fill:#141414;}
	.st1{fill:#22B121;}
</style>
<g id="Layer_2_00000121994628712239744560000009395326402184965260_">
	<g id="Layer_1-2">
		<path d="M405,223.8c0,6.8-3.6,11.8-10.1,14c-8,3.2-16.6,4.8-25.3,4.6c-15.1,0-27.1-3.9-35.7-11.7c-9.6-8.7-14.5-21.6-14.5-38.6
			v-91.7h-8c-8.6,0-15.5-7-15.5-15.5s7-15.5,15.5-15.5h8V36.6c0-9.7,7.2-17.1,16.8-17.1c9.4,0.1,17,7.7,17.1,17.1v32.8h36.5
			c8.6,0,15.5,7,15.5,15.5s-7,15.5-15.5,15.5l0,0h-36.6v88.6c0,15.2,6.6,21.7,22,21.7c3.5,0,7-0.5,10.4-1.4c1.4-0.4,2.8-0.7,4.2-0.7
			c8.2-0.2,15,6.3,15.2,14.6C405,223.4,405,223.6,405,223.8z"/>
		<path d="M521.5,85.6c0,8.9-5.9,15.7-14.8,17c-33.2,4.3-52.2,29.2-52.2,68.2v54.6c0,9.7-7.2,17.1-16.8,17.1
			c-9.9,0-17.1-7.2-17.1-17.1V86.2c-0.1-9.3,7.4-17,16.8-17.1c9.9,0,17.1,7.2,17.1,17.1v11.5c13.1-17.6,32.2-29.2,50.2-29.2
			C514.6,68.5,521.5,75.5,521.5,85.6z"/>
		<path d="M651.8,85.8c-12.7-12.7-31.3-19.1-55.3-19.1c-20.3,0-37,3.5-54.3,11.2c-5.9,2.4-9.7,8.2-9.6,14.6
			c0,8.4,6.8,15.2,15.2,15.2c0.1,0,0.2,0,0.3,0c2.1,0,4.2-0.5,6.2-1.3l0.1-0.1c13.4-5.8,26-8.6,39.5-8.6c19.3,0,42.3,6.6,42.7,37.8
			c-14.5-3.7-29.4-5.5-44.3-5.3c-45.3,0-73.5,21.8-73.5,56.8v0.6c0,36.1,32.6,54.9,64.8,54.9c24.7,0,41.7-9.3,53-19.7v1.7
			c0,9.4,6.9,16.2,16.5,16.2s16.5-7.1,16.5-16.8v-87.7C669.7,114.6,663.6,97.6,651.8,85.8z M588.4,213.6c-17,0-35.3-8.4-35.3-26.9
			V186c0-17.9,15.2-28.2,41.8-28.2c14.2,0,28.4,1.9,42.1,5.6v11.7C637,197.1,616.1,213.6,588.4,213.6z"/>
		<path d="M837.1,136.4v89c0,9.7-7.2,17.1-16.8,17.1c-9.9,0-17.1-7.2-17.1-17.1v-83.1c0-27.6-14.3-43.4-39.3-43.4
			c-25.3,0-43,18.6-43,45.2v81.2c0,10.1-6.9,17.1-16.8,17.1s-17.1-7.2-17.1-17.1V86.2c-0.1-9.3,7.4-17,16.8-17.1
			c9.9,0,17.1,7.2,17.1,17.1v2.4c13-14.3,29.4-21.3,49.9-21.3C811.1,67.2,837.1,94.4,837.1,136.4z"/>
		<path d="M986.5,188.8v0.6c0,16.1-6.4,29.7-18.4,39.3c-11.1,8.9-26.6,13.7-43.6,13.7c-22,0-46.1-7.9-64.6-21.1
			c-4.1-3-6.4-7.7-6.4-12.8c0-8.4,6.8-15.2,15.2-15.2c0.1,0,0.2,0,0.3,0c3.2-0.1,6.3,0.9,8.8,2.8c15.6,10.7,31.7,16.1,47.9,16.1
			c13.6,0,28.2-5.4,28.2-20.4v-0.6c0-11.1-13.3-17-36.3-23.4l-1.1-0.3c-24.8-7.4-55.6-16.7-55.6-49.8v-0.6c0-30,24.5-50.9,59.6-50.9
			c17.4,0,35.9,4.9,53.5,14.2l0.3,0.2c6.8,4.3,8.2,10.1,8.2,14.1c0,8.4-6.8,15.2-15.2,15.2c-0.1,0-0.2,0-0.3,0
			c-2.7,0.1-5.4-0.6-7.8-1.9c-13.5-7.7-27.1-11.7-39.3-11.7c-15.5,0-26,7.3-26,18.2v0.6c0,11.3,18,16.8,37.1,22.6l0.6,0.2
			C953.4,144.7,986.5,154.6,986.5,188.8z"/>
		<path d="M1151.4,136.4v89c0,9.7-7.2,17.1-16.8,17.1c-9.9,0-17.1-7.2-17.1-17.1v-83.1c0-27.6-14.3-43.4-39.3-43.4
			c-25.3,0-43,18.6-43,45.2v81.2c0,10.1-6.9,17.1-16.8,17.1s-17.1-7.2-17.1-17.1V86.2c-0.1-9.3,7.4-17,16.8-17.1
			c9.9,0,17.1,7.2,17.1,17.1v2.4c13-14.3,29.4-21.3,49.9-21.3C1125.4,67.2,1151.4,94.4,1151.4,136.4z"/>
		<path d="M1328.2,151.3c0-42.8-27.3-86.2-79.4-86.2c-22.4-0.2-43.9,9.3-58.9,26c-14.8,16.4-23,38.5-23,62.4v0.6
			c0,50.4,36.5,88.4,85,88.4c25.7,0,45.4-7.9,63.8-25.5c3.4-2.8,5.4-7,5.3-11.4c0-8.4-6.8-15.2-15.2-15.2c-0.1,0-0.2,0-0.3,0
			c-3.7,0.1-7.3,1.5-10.1,4l-0.1,0.1c-13.3,12-26.6,17.3-42.8,17.3c-26.1,0-45.9-17.6-50.7-44.2H1312
			C1320.9,167.4,1328.1,160.2,1328.2,151.3z M1248.2,95.2c28.6,0,42,22.1,45.5,44.6h-91.8C1206.8,113.3,1225.2,95.2,1248.2,95.2
			L1248.2,95.2z"/>
		<path d="M1438.8,223.8c0,6.8-3.6,11.8-10.1,14c-8,3.2-16.6,4.8-25.3,4.6c-15.1,0-27.1-3.9-35.7-11.7c-9.6-8.7-14.5-21.6-14.5-38.6
			v-91.7h-8c-8.6,0-15.5-7-15.5-15.5s7-15.5,15.5-15.5h8V36.6c0-9.7,7.2-17.1,16.8-17.1c9.4,0.1,17,7.7,17.1,17.1v32.8h36.5
			c8.6,0,15.5,7,15.5,15.5s-7,15.5-15.5,15.5l0,0h-36.5v88.6c0,15.2,6.6,21.7,22,21.7c3.5,0,7-0.5,10.4-1.4c1.4-0.4,2.8-0.7,4.2-0.7
			c8.2-0.2,15,6.4,15.2,14.6C1438.8,223.4,1438.8,223.6,1438.8,223.8z"/>
		<path class="st0" d="M122,120.4v95.7c0,14.6-11.8,26.4-26.4,26.4h-3.8c-1.9,0-3.5-1.6-3.5-3.5V123.2C88.3,102.7,71.6,86,51,86
			H26.2C11.7,86,0,74.2,0,59.8v-4c0-1.9,1.6-3.5,3.5-3.5h50.3C91.5,52.3,122,82.8,122,120.4z"/>
		<path class="st0" d="M266.4,55.8v4c0,14.5-11.7,26.2-26.2,26.2h-24.9c-20.6,0-37.2,16.7-37.3,37.2v115.7c0,1.9-1.6,3.5-3.5,3.5
			h-3.8c-14.6,0-26.3-11.8-26.4-26.4v-95.7c0-37.6,30.6-68.2,68.2-68.2h50.3C264.8,52.2,266.4,53.8,266.4,55.8z"/>
		<path class="st1" d="M137.5,2.4L148.7,23c0.8,1.5,2.1,2.8,3.6,3.6l20.6,11.2c2.3,1.2,3.1,4.1,1.9,6.3c-0.4,0.8-1.1,1.4-1.9,1.9
			l-20.6,11.3c-1.5,0.8-2.8,2.1-3.6,3.6l-11.2,20.6c-1.2,2.3-4.1,3.1-6.3,1.9c-0.8-0.4-1.4-1.1-1.9-1.9l-11.2-20.6
			c-0.8-1.5-2.1-2.8-3.6-3.6L93.9,46c-2.3-1.2-3.1-4.1-1.9-6.3c0.4-0.8,1.1-1.4,1.9-1.9l20.6-11.2c1.5-0.8,2.8-2.1,3.6-3.6
			l11.2-20.6c1.2-2.3,4.1-3.1,6.3-1.9C136.4,1,137.1,1.6,137.5,2.4z"/>
	</g>
</g>
</svg>
