<svg xmlns="http://www.w3.org/2000/svg" viewBox="0 0 1080.05 174.15"><defs><style>.cls-1{fill:#fff;}</style></defs><g id="Layer_2" data-name="Layer 2"><g id="Layer_1-2" data-name="Layer 1"><path class="cls-1" d="M347.31,17.86c0,6.39-4.08,10.06-11.18,10.06H305.64v129c0,9.85-6.72,11.32-10.73,11.32-7.1,0-11.18-4.13-11.18-11.32v-129H253.47c-7.5,0-11.63-3.57-11.63-10.06S246,7.59,253.47,7.59h82.66C343.23,7.59,347.31,11.33,347.31,17.86Z"/><path class="cls-1" d="M421.68,55c0,5.89-5.11,10.69-11.4,10.69a37.31,37.31,0,0,1-7.16-.71,40.23,40.23,0,0,0-8.08-.76c-13,0-28.91,12.9-28.91,28v65.94c0,6.49-3.9,10.06-11,10.06-6.82,0-10.73-3.66-10.73-10.06V55.66c0-6.79,3.91-10.69,10.73-10.69,7.06,0,11,3.8,11,10.69v2.17c8.7-9.49,21.81-15,36.53-15C416.7,42.87,421.68,49.42,421.68,55Z"/><path class="cls-1" d="M481.51,43.71c-14.31,0-26.81,2.12-38.2,6.49-4.59,1.77-7.92,5.92-7.92,9.87,0,5.47,4,9,10.28,9,3.2,0,6.65-.89,10.64-1.93,5.35-1.38,12-3.11,20.27-3.11,19.09,0,30.94,8.3,30.94,21.65v14.72c-7.78-4.87-19.15-7.77-31.16-7.77-24.93,0-50.16,13.63-50.16,39.67,0,25.82,23.68,37.57,45.68,37.57,13.53,0,26.24-4.15,35.78-11.55,0,.49,0,1,.09,1.62.33,5.94,4.73,9.93,11,9.93,7.19,0,10.95-5.16,10.95-10.27V84.22C529.65,59.61,510.76,43.71,481.51,43.71Zm-6.72,106.47c-12.79,0-26.45-5-26.45-19.13s15.09-18.92,28-18.92c15.21,0,30.94,6.61,30.94,17.66C507.3,142.56,490.77,150.18,474.79,150.18Z"/><path class="cls-1" d="M646.59,85.48v72.66c0,6.49-3.9,10.06-11,10.06-6.81,0-10.73-3.66-10.73-10.06V92.2c0-19.93-14.18-29-27.35-29-13.61,0-28.25,9.07-28.25,29v65.94c0,6.49-3.89,10.06-10.95,10.06-6.83,0-10.73-3.66-10.73-10.06V55.66c0-6.79,3.9-10.69,10.73-10.69,7.06,0,10.95,3.8,10.95,10.69,7.6-8.21,18.48-12.79,30.94-12.79C623,42.87,646.59,58.81,646.59,85.48Z"/><path class="cls-1" d="M761.28,132.73c0,27.89-26.42,37.78-49,37.78-14.83,0-28.06-3.94-42.88-12.78-2.64-1.66-4.14-4.71-4.14-8.41,0-8.19,5.2-11.11,10.06-11.11a14.8,14.8,0,0,1,8,2.76c9.68,6,19.59,9,29.39,9,2.54,0,24.89-.44,24.89-15.77,0-8.63-12.82-14-24-17.81-17.51-6-46.79-15.9-46.79-36.37,0-22.31,18.72-36.73,47.69-36.73,13.42,0,25.86,2.72,36,7.86a10.43,10.43,0,0,1,5.65,9.55c0,5.89-4.14,9.85-10.28,9.85A13.46,13.46,0,0,1,739.6,69c-4.68-2.56-15-5.13-25.56-5.13-5.69,0-24.22,1-24.22,14.3,0,6.67,12.56,11.37,25.86,16.34,2.24.84,4.51,1.69,6.76,2.56C740.65,104.11,761.28,112.13,761.28,132.73Z"/><path class="cls-1" d="M873.06,85.48v72.66c0,6.49-3.89,10.06-10.95,10.06-6.83,0-10.73-3.66-10.73-10.06V92.2c0-19.93-14.18-29-27.35-29-13.62,0-28.25,9.07-28.25,29v65.94c0,6.49-3.89,10.06-11,10.06-6.82,0-10.73-3.66-10.73-10.06V55.66C774.09,48.87,778,45,784.82,45c7.07,0,11,3.8,11,10.69,7.59-8.21,18.48-12.79,30.93-12.79C849.5,42.87,873.06,58.81,873.06,85.48Z"/><path class="cls-1" d="M990.47,135.69a17.83,17.83,0,0,0-11.41,4.41c-9.16,7.63-16.13,10.08-28.69,10.08-17.67,0-35.65-16.26-37.32-33H986c14,0,15.21-9.64,15.21-19.51,0-33.41-21.37-55-54.42-55-17.17,0-31.82,7-42.35,20.3C895.2,74.6,889.9,90.61,889.9,106.9c0,37.58,24.86,63.82,60.47,63.82,20.73,0,36.85-6.57,47.92-19.53a7.87,7.87,0,0,0,2.24-5.86C1000.53,139.48,996.58,135.69,990.47,135.69Zm-43-72.49c18,0,30.78,13.79,31.76,33.85h-66C914.41,77.88,929,63.2,947.46,63.2Z"/><path class="cls-1" d="M1077.81,160.24c0,3-1.23,9.85-12.52,9.85-31.1,0-35.39-20.17-35.39-42v-62h-4.5c-6.91,0-10.73-3.42-10.73-9.64,0-6,3.51-9.43,9.61-9.43h5.62V32.35c0-6.39,3.92-10.06,10.73-10.06,7.08,0,11,3.57,11,10.06V47.07h17.05c9.92,0,11.4,6,11.4,9.64,0,6.22-3.89,9.64-11,9.64H1051.6v61.76c0,17.31,1.88,22.7,13.69,22.7C1076.58,150.81,1077.81,157.41,1077.81,160.24Z"/><path class="cls-1" d="M87.64,86.51v68.7A19,19,0,0,1,68.7,174.15H66a2.54,2.54,0,0,1-2.53-2.53V88.5A26.78,26.78,0,0,0,36.67,61.75H18.8A18.83,18.83,0,0,1,0,42.94V40.06a2.53,2.53,0,0,1,2.53-2.53H38.65A49,49,0,0,1,87.64,86.51Z"/><path class="cls-1" d="M191.34,40.06v2.88a18.83,18.83,0,0,1-18.8,18.81H154.67A26.78,26.78,0,0,0,127.92,88.5v83.12a2.53,2.53,0,0,1-2.53,2.53h-2.75a19,19,0,0,1-18.93-18.94V86.51a49,49,0,0,1,49-49h36.12A2.53,2.53,0,0,1,191.34,40.06Z"/><path class="cls-1" d="M98.74,1.74l8.09,14.78a6.41,6.41,0,0,0,2.58,2.58l14.78,8.09a3.35,3.35,0,0,1,0,5.87l-14.78,8.08a6.47,6.47,0,0,0-2.58,2.58L98.74,58.51a3.35,3.35,0,0,1-5.87,0L84.79,43.72a6.53,6.53,0,0,0-2.58-2.58L67.42,33.06a3.35,3.35,0,0,1,0-5.87L82.21,19.1a6.47,6.47,0,0,0,2.58-2.58L92.87,1.74A3.35,3.35,0,0,1,98.74,1.74Z"/></g></g></svg>