<svg xmlns="http://www.w3.org/2000/svg" viewBox="0 0 1119.81 156.98"><defs><style>.cls-1{fill:#fff;}</style></defs><g id="Layer_2" data-name="Layer 2"><g id="Layer_1-2" data-name="Layer 1"><path class="cls-1" d="M79,78v61.93A17.09,17.09,0,0,1,61.93,157H59.45a2.29,2.29,0,0,1-2.28-2.28V79.78A24.15,24.15,0,0,0,33.05,55.66H17A17,17,0,0,1,0,38.71v-2.6a2.29,2.29,0,0,1,2.28-2.28H34.84A44.21,44.21,0,0,1,79,78Z"/><path class="cls-1" d="M172.48,36.11v2.6a17,17,0,0,1-16.95,16.95H139.42a24.14,24.14,0,0,0-24.11,24.12V154.7A2.28,2.28,0,0,1,113,157h-2.48a17.08,17.08,0,0,1-17.06-17.07V78a44.2,44.2,0,0,1,44.15-44.15H170.2A2.28,2.28,0,0,1,172.48,36.11Z"/><path class="cls-1" d="M89,1.57,96.3,14.89a5.78,5.78,0,0,0,2.32,2.33L112,24.51a3,3,0,0,1,0,5.29L98.62,37.09a5.76,5.76,0,0,0-2.32,2.32L89,52.74a3,3,0,0,1-5.29,0L76.43,39.41a5.78,5.78,0,0,0-2.33-2.32L60.78,29.8a3,3,0,0,1,0-5.29L74.1,17.22a5.81,5.81,0,0,0,2.33-2.33L83.72,1.57A3,3,0,0,1,89,1.57Z"/><path class="cls-1" d="M396.28,57.57l-2.83-1.26a36,36,0,0,0-14.86-3.38c-8.68,0-15.69,3-20.86,8.91-5.35,6-8.07,14.71-8.07,25.93v67.78H326.23v-123h23.2V45.18a32,32,0,0,1,9.07-8.25,41.66,41.66,0,0,1,21.94-5.81,52.29,52.29,0,0,1,18.5,3.52l2,.75-.45,2.11-3.59,17Z"/><path class="cls-1" d="M315,143l.85,1.86-1.66,1.2c-10,7.24-20.88,10.91-32.31,10.91-11.25,0-20.54-3.52-27.61-10.46s-10.71-16.6-10.71-28.57V54.21H217.92V32.51h25.63V.05H267.1V32.51h37.22v21.7H267.1v62.08c0,6.14,1.67,10.7,5.12,14s8,4.88,13.71,4.88A32.58,32.58,0,0,0,305.34,129l2.48-1.77,1.26,2.77Z"/><path class="cls-1" d="M551.4,147.69l-5-14-.95-2.7-2.55,1.31a22.2,22.2,0,0,1-10.1,2.85c-3.77,0-6.59-1-8.63-3.17l0,0,0,0c-2.08-2.08-3.09-5.18-3.09-9.47V32.51H497.84V48.17A45.25,45.25,0,0,0,483.93,36.3c-7.87-4.36-17.37-6.57-28.22-6.57a59,59,0,0,0-25.17,5.21,53.87,53.87,0,0,0-19,14.35,64.85,64.85,0,0,0-11.34,20.38,70.58,70.58,0,0,0-4.08,24.24,69.44,69.44,0,0,0,7,31,55,55,0,0,0,20.74,23.39c9.12,5.72,19.91,8.62,32.06,8.62,10.78,0,20.39-2.29,28.57-6.81a44.66,44.66,0,0,0,15.43-14,26.89,26.89,0,0,0,8.14,13.32c5.59,4.95,12.55,7.47,20.67,7.47a39.47,39.47,0,0,0,21.64-6.31l1.67-1.07Zm-92.91-12.57c-11.58,0-21-3.9-28.07-11.59s-10.71-17.66-10.71-30.08a51,51,0,0,1,4.53-21.35,33.75,33.75,0,0,1,12.87-15c5.71-3.66,12.67-5.52,20.68-5.52,12.07,0,21.49,3.76,28.79,11.51s11,18,11,30.4-3.6,22.19-11,30.05C479.31,131.21,469.85,135.12,458.49,135.12Z"/><path class="cls-1" d="M770.83,99.09c4.25,4.76,6.32,11.07,6.32,19.29,0,11.91-4.63,21.44-13.79,28.34-9.32,6.78-20.7,10.22-33.82,10.22a71.31,71.31,0,0,1-29.42-6.36,63.32,63.32,0,0,1-23.77-18l-1.4-1.72,1.56-1.6,12.28-12.64,2.11-2.17,1.73,2.49a38.89,38.89,0,0,0,16.64,13.42,50.72,50.72,0,0,0,22,5c7.07,0,12.58-1.35,16.84-4.12a11.68,11.68,0,0,0,5.82-10.54c0-4.29-1.61-7.35-4.93-9.34-3.8-2.28-10.91-4.52-21.13-6.65-10.45-2.16-18.69-4.38-24.46-6.59a37.69,37.69,0,0,1-15.11-10c-4.76-5-7.07-11.8-7.07-20.74,0-11.73,4.3-21.08,12.79-27.83,8.35-6.5,19.05-9.8,31.8-9.8a68.08,68.08,0,0,1,24,4.35,53.5,53.5,0,0,1,19.57,13l1.51,1.61-1.42,1.7L759.06,62.93l-1.83,2.2L755.29,63a34.53,34.53,0,0,0-13.18-8.74,47.24,47.24,0,0,0-16.85-3.2c-6.4,0-11.56,1.43-15.35,4.27a12.47,12.47,0,0,0-5.35,10.73c0,3.89,1.28,9.49,12.36,13.18a112.42,112.42,0,0,0,16.44,4.08l.1,0a228.6,228.6,0,0,1,23.59,6.34h.05A35.53,35.53,0,0,1,770.83,99.09Z"/><path class="cls-1" d="M655.73,41.85c7.85,8.1,11.83,19.3,11.83,33.28v80.42H644.24V80.35c0-9.17-2.32-16.42-6.88-21.5s-11-7.54-19.37-7.54a32.58,32.58,0,0,0-25.3,11.14c-6.94,7.49-10.47,17.6-10.47,30.07v63H558.79v-123H582V48.63a46.16,46.16,0,0,1,13.15-11.94c7.78-4.62,17.15-7,27.83-7C636.66,29.73,647.67,33.8,655.73,41.85Z"/><path class="cls-1" d="M894,75.13v80.42H870.72V80.35c0-9.17-2.32-16.42-6.88-21.5s-11-7.54-19.38-7.54a32.58,32.58,0,0,0-25.3,11.14c-6.94,7.49-10.46,17.6-10.46,30.07v63H785.26v-123h23.21V48.63a46,46,0,0,1,13.15-11.94c7.78-4.62,17.14-7,27.83-7,13.69,0,24.7,4.07,32.75,12.12C890.05,50,894,61.15,894,75.13Z"/><path class="cls-1" d="M1003.44,45.51C993.94,35,980.8,29.73,964.37,29.73c-12.68,0-23.67,3-32.68,8.87a57.51,57.51,0,0,0-20.93,23.61,72.32,72.32,0,0,0-7.33,32.4,67.68,67.68,0,0,0,7.47,31.53,55.44,55.44,0,0,0,21.23,22.56c9.23,5.47,20,8.24,32,8.24,20.75,0,37.88-8.8,50.93-26.16l1.33-1.77-1.6-1.54-11.13-10.67-2.13-2-1.66,2.44c-8.36,12.22-19.6,18.16-34.35,18.16-11,0-19.79-3.05-26.73-9.33-6.24-5.65-10.17-13.69-11.71-23.94h90.57V88.46C1017.65,70.36,1012.87,55.9,1003.44,45.51Zm-65,14.17c6.38-6,14.7-8.84,25.43-8.84,10.29,0,17.76,2.73,22.86,8.34,4.71,5.22,7.28,12.93,7.64,23H927.34C928.86,72.71,932.6,65.16,938.47,59.68Z"/><path class="cls-1" d="M1119.81,144.83l-1.66,1.2c-10,7.24-20.88,10.91-32.3,10.91-11.26,0-20.55-3.52-27.61-10.46s-10.72-16.6-10.72-28.57V54.21H1021.9V32.51h25.62V.05h23.55V32.51h37.22v21.7h-37.22v62.08c0,6.14,1.69,10.7,5.13,14s8,4.88,13.71,4.88a32.58,32.58,0,0,0,19.41-6.14l2.47-1.77,1.26,2.77,5.92,13Z"/></g></g></svg>