<svg xmlns="http://www.w3.org/2000/svg" viewBox="0 0 1439.13 242.51"><defs><style>.cls-1{fill:#fff;}</style></defs><g id="Layer_2" data-name="Layer 2"><g id="Layer_1-2" data-name="Layer 1"><g id="Layer_2-2" data-name="Layer 2"><g id="Layer_1-2-2" data-name="Layer 1-2"><path class="cls-1" d="M405,223.84c0,6.81-3.59,11.78-10.11,14a65.82,65.82,0,0,1-25.27,4.64c-15.08,0-27.1-3.94-35.74-11.71-9.64-8.66-14.52-21.63-14.52-38.55V100.5h-8a15.54,15.54,0,0,1,0-31.08h8V36.6c0-9.74,7.21-17.09,16.78-17.09A17.31,17.31,0,0,1,353.23,36.6V69.42h36.54a15.54,15.54,0,1,1,0,31.08H353.21v88.62c0,15.18,6.57,21.66,22,21.66a37.46,37.46,0,0,0,10.37-1.43,16.17,16.17,0,0,1,4.2-.74A14.89,14.89,0,0,1,405,223.18Z"/><path class="cls-1" d="M521.53,85.58a16.72,16.72,0,0,1-14.79,17c-33.19,4.31-52.17,29.17-52.17,68.21v54.56c0,9.74-7.21,17.09-16.78,17.09-9.9,0-17.09-7.19-17.09-17.09V86.2a17,17,0,0,1,16.78-17.09c9.91,0,17.09,7.19,17.09,17.09V97.74c13.08-17.63,32.25-29.25,50.18-29.25C514.63,68.49,521.53,75.52,521.53,85.58Z"/><path class="cls-1" d="M651.76,85.77c-12.7-12.7-31.3-19.14-55.31-19.14-20.27,0-37,3.46-54.29,11.22a15.41,15.41,0,0,0-9.6,14.55,15.22,15.22,0,0,0,15.21,15.23h.33a17.3,17.3,0,0,0,6.19-1.29l.14-.06c13.42-5.84,26-8.57,39.54-8.57,19.32,0,42.3,6.59,42.74,37.8a172.24,172.24,0,0,0-44.29-5.33c-45.34,0-73.5,21.75-73.5,56.77v.62c0,36.05,32.61,54.91,64.82,54.91,24.73,0,41.72-9.31,53-19.7v1.68c0,9.36,6.93,16.16,16.47,16.16s16.47-7.06,16.47-16.78V136.11C669.65,114.58,663.63,97.64,651.76,85.77Zm-63.37,127.8c-17,0-35.29-8.43-35.29-26.93V186c0-17.9,15.23-28.17,41.8-28.17a160.52,160.52,0,0,1,42.1,5.65v11.68C637,197.06,616.12,213.57,588.39,213.57Z"/><path class="cls-1" d="M837.11,136.42v89c0,9.74-7.21,17.09-16.78,17.09-9.9,0-17.09-7.19-17.09-17.09V142.31c0-27.55-14.33-43.36-39.33-43.36-25.34,0-43,18.6-43,45.22v81.22c0,10.06-6.9,17.09-16.78,17.09S687,235.29,687,225.39V86.2a17,17,0,0,1,16.77-17.09c9.91,0,17.09,7.19,17.09,17.09v2.39c13-14.33,29.44-21.34,49.87-21.34C811.06,67.25,837.11,94.4,837.11,136.42Z"/><path class="cls-1" d="M986.5,188.81v.62c0,16.08-6.37,29.68-18.42,39.32-11.07,8.85-26.56,13.73-43.62,13.73-22,0-46.11-7.88-64.59-21.08a15.85,15.85,0,0,1-6.44-12.75,15.24,15.24,0,0,1,15.23-15.24H869a14.45,14.45,0,0,1,8.85,2.83c15.62,10.67,31.73,16.08,47.88,16.08,13.62,0,28.17-5.36,28.17-20.42v-.62c0-11.08-13.32-17-36.33-23.39l-1.08-.32c-24.76-7.43-55.59-16.67-55.59-49.76v-.62c0-30,24.5-50.88,59.56-50.88,17.42,0,35.92,4.92,53.49,14.22l.35.2c6.78,4.32,8.2,10.07,8.2,14.14a15.22,15.22,0,0,1-15.21,15.23H967a15.1,15.1,0,0,1-7.78-1.92c-13.51-7.67-27.11-11.72-39.34-11.72-15.55,0-26,7.34-26,18.25v.62c0,11.34,18,16.82,37.08,22.62l.61.19C953.39,144.71,986.5,154.65,986.5,188.81Z"/><path class="cls-1" d="M1151.45,136.42v89c0,9.74-7.22,17.09-16.78,17.09-9.91,0-17.09-7.19-17.09-17.09V142.31c0-27.55-14.34-43.36-39.33-43.36-25.35,0-43,18.6-43,45.22v81.22c0,10.06-6.9,17.09-16.78,17.09s-17.09-7.19-17.09-17.09V86.2a17,17,0,0,1,16.78-17.09c9.9,0,17.09,7.19,17.09,17.09v2.39c13-14.33,29.43-21.34,49.87-21.34C1125.39,67.25,1151.45,94.4,1151.45,136.42Z"/><path class="cls-1" d="M1328.15,151.3c0-42.84-27.28-86.22-79.4-86.22a78.45,78.45,0,0,0-58.89,26c-14.83,16.39-23,38.54-23,62.37v.62c0,50.39,36.53,88.39,85,88.39,25.72,0,45.41-7.87,63.83-25.5a14.77,14.77,0,0,0,5.34-11.43,15.25,15.25,0,0,0-15.23-15.24h-.31a15.67,15.67,0,0,0-10.08,4l-.08.08c-13.35,12-26.57,17.32-42.85,17.32-26.1,0-45.9-17.55-50.69-44.25H1312A16.19,16.19,0,0,0,1328.15,151.3Zm-80-56.07c28.56,0,42,22.11,45.51,44.56h-91.8c4.9-26.5,23.34-44.56,46.27-44.56Z"/><path class="cls-1" d="M1438.81,223.84c0,6.81-3.58,11.78-10.11,14a65.82,65.82,0,0,1-25.27,4.64c-15.07,0-27.09-3.94-35.73-11.71-9.64-8.66-14.52-21.63-14.52-38.55V100.5h-8a15.54,15.54,0,1,1,0-31.08h8V36.6c0-9.74,7.21-17.09,16.78-17.09a17.31,17.31,0,0,1,17.09,17.09V69.42h36.54a15.54,15.54,0,1,1,0,31.08h-36.54v88.62c0,15.18,6.57,21.66,22,21.66a37.46,37.46,0,0,0,10.37-1.43,16.17,16.17,0,0,1,4.2-.74,14.89,14.89,0,0,1,15.19,14.58C1438.82,223.41,1438.82,223.62,1438.81,223.84Z"/><path class="cls-1" d="M122,120.46v95.65a26.41,26.41,0,0,1-26.37,26.37h-3.8A3.55,3.55,0,0,1,88.3,239V123.23A37.29,37.29,0,0,0,51.05,86H26.17A26.2,26.2,0,0,1,0,59.79v-4a3.52,3.52,0,0,1,3.52-3.53H53.81A68.28,68.28,0,0,1,122,120.46Z"/><path class="cls-1" d="M266.4,55.79v4A26.21,26.21,0,0,1,240.22,86H215.35a37.29,37.29,0,0,0-37.26,37.25V239a3.53,3.53,0,0,1-3.52,3.53h-3.82a26.4,26.4,0,0,1-26.36-26.37V120.46a68.27,68.27,0,0,1,68.2-68.2h50.28A3.53,3.53,0,0,1,266.4,55.79Z"/><path class="cls-1" d="M137.48,2.43,148.73,23a9.08,9.08,0,0,0,3.6,3.59l20.58,11.25a4.66,4.66,0,0,1,1.86,6.32A4.75,4.75,0,0,1,172.91,46L152.33,57.29a9,9,0,0,0-3.6,3.59L137.48,81.47a4.67,4.67,0,0,1-8.18,0L118.05,60.88a9.05,9.05,0,0,0-3.59-3.59L93.87,46A4.67,4.67,0,0,1,92,39.68a4.73,4.73,0,0,1,1.86-1.85l20.59-11.22a9.2,9.2,0,0,0,3.59-3.6L129.3,2.43a4.66,4.66,0,0,1,8.18,0Z"/></g></g></g></g></svg>